<?xml version="1.0" encoding="utf-8"?>
<!-- Generator: Adobe Illustrator 26.2.1, SVG Export Plug-In . SVG Version: 6.00 Build 0)  -->
<svg version="1.2" baseProfile="tiny" id="g-gdp-mobile-interactive-img" xmlns="http://www.w3.org/2000/svg" xmlns:xlink="http://www.w3.org/1999/xlink"
	 x="0px" y="0px" viewBox="0 0 370 607.27" overflow="visible" xml:space="preserve">
<g>
	<g id="gfc-gdp-arrow_00000004546311075016609500000017614757616782792075_">
		<g id="gfc-gdp-arrow-desktop_00000074409870819106465320000015289615372666510224_">
			<path fill="none" stroke="#464646" d="M-211.549,316.571c0.585,15.446-26.98,3.978-26.98,3.978"/>
			<g>
				<polygon fill="#464646" points="-215.886,319.727 -215.181,320.437 -211.688,316.956 -208.472,320.694 -207.714,320.04 
					-211.632,315.489 				"/>
			</g>
		</g>
		<g id="gfc-gdp-arrow-mobile_00000031182500014523539460000012850722827023137215_">
			<path fill="none" stroke="#464646" d="M270.907,380.818c0.585,15.446-26.98,3.978-26.98,3.978"/>
			<g>
				<polygon fill="#464646" points="266.57,383.974 267.276,384.683 270.768,381.203 273.984,384.94 274.742,384.287 
					270.824,379.735 				"/>
			</g>
		</g>
	</g>
	<g id="oil-gdp-arrow_00000130630380923560121110000016807326765591075466_">
		<g id="oil-gdp-arrow-desktop_00000046317993875963126730000010954402163999369905_">
			<path fill="none" stroke="#464646" d="M-517.779,312.663c-6.301,25.46,26.435,8.72,26.435,8.72"/>
			<g>
				<polygon fill="#464646" points="-522.432,315.044 -521.861,315.866 -517.815,313.048 -515.3,317.289 -514.439,316.778 
					-517.504,311.613 				"/>
			</g>
		</g>
		<g id="oil-gdp-arrow-mobile_00000157307472243071318600000007960336599459919504_">
			<path fill="none" stroke="#464646" d="M161.214,376.182c5.707,23.305-26.333,8.991-26.333,8.991"/>
			<g>
				<polygon fill="#464646" points="157.841,380.277 158.698,380.794 161.24,376.569 165.268,379.413 165.844,378.595 
					160.938,375.132 				"/>
			</g>
		</g>
	</g>
	<g id="blue-line-c_00000096775543838406177980000000277200133688726423_">
		
			<path id="blue-line-c-mobile_00000117670661540174631920000016468682177812769430_" fill="none" stroke="#0397CC" stroke-width="3" stroke-linecap="round" stroke-linejoin="round" d="
			M315.347,577.605l0.96-572.095l0.971,257.883l0.971-15.843l0.949-3.521l0.96,38.726l0.971-40.487l0.971,73.052"/>
		
			<path id="blue-line-c-desktop_00000175285715687840345250000015650694008975031944_" fill="none" stroke="#0397CC" stroke-width="3" stroke-linecap="round" stroke-linejoin="round" d="
			M-87.995,475.833l2.678-464.235l2.708,209.263l2.709-12.856l2.648-2.857l2.678,31.425l2.708-32.854l2.709,59.279"/>
	</g>
	<g id="blue-line-b_00000026149591710181083380000009151534906682304949_">
		
			<path id="blue-line-b-mobile_00000012445180890634168310000018012414383842998681_" fill="none" stroke="#0397CC" stroke-width="3" stroke-linecap="round" stroke-linejoin="round" d="
			M313.415,286.277l0.971,61.61l0.96,229.718"/>
		
			<path id="blue-line-b-desktop_00000001631750365004622150000016382403763537489820_" fill="none" stroke="#0397CC" stroke-width="3" stroke-linecap="round" stroke-linejoin="round" d="
			M-96.088,233.002l2.708,6.428l2.709,49.995l2.677,186.408"/>
	</g>
	<g id="blue-line-a_00000114048099657649396500000009755976755275508147_">
		
			<path id="blue-line-a-desktop_00000007428297713247883400000005540386890652564870_" fill="none" stroke="#0397CC" stroke-width="3" stroke-linecap="round" stroke-linejoin="round" d="
			M-735.63,186.579l2.678,81.42l2.677-29.283l2.708,49.995l2.709-54.994l2.649-30.711l2.677-6.428l2.708-1.428l2.709,5.714
			l2.649,25.711l2.677-9.285l2.708,26.426l2.709-22.14l2.649-1.428l2.677-32.139l2.708,45.709l2.709-42.852l2.678,30.711
			l2.677-14.284l2.708,37.139l2.709-62.85l2.649,34.282l2.677-28.568l2.708-2.143l2.709-4.285l2.649,62.136l2.677-14.284
			l2.708,0.714l2.709-2.143l2.649,23.569l2.677-24.997l2.708,4.999l2.709-37.853l2.678,10.713l2.677,27.14l2.708,10.713
			l2.709-34.282l2.649,37.139l2.677-10.713l2.708,32.854l2.709-9.285l2.649-8.57l2.677-22.14l2.708,56.422l2.709-110.702
			l2.649,64.993l2.677-7.856l2.708,16.427l2.709-47.138l2.678-12.856l2.677,39.996l2.708-22.14l2.709-24.283l2.649,42.138
			l2.677,46.424l2.708-42.852l2.709,52.137l2.647-31.425l2.678,33.568l2.708-15.713l2.709,23.569l2.647-54.994l2.678-29.283
			l2.708,10.713l2.709-27.14l2.678,44.995l2.677,5.714l2.708-4.999l2.709-13.57l2.649-22.855l2.677,4.285l2.708,52.851l2.709-9.285
			l2.649-107.845l2.677,87.848l2.708-9.999l2.709,34.282l2.649,2.143l2.677-18.569l2.708,14.284l2.709-2.143l2.678,66.421
			l2.677-53.566l2.708-58.565l2.709-2.857l2.649,78.563l2.677-55.708l2.708,65.707l2.709,12.856l2.649-56.422l2.677,23.569
			l2.708-12.142l2.709-37.139l2.649-28.568l2.677,8.57l2.708-2.857l2.709,3.571l2.678,7.142l2.677,22.855l2.708,4.285l2.709-4.285
			l2.649,2.143l2.677-18.569l2.708,22.855l2.709-5.714l2.649,14.284l2.677-14.998l2.708,12.142l2.709-5.714l2.649-9.999l2.677,6.428
			l2.708-24.997l2.709,34.996l2.678-23.569l2.677,21.426l2.708-21.426l2.709,9.285l2.649,7.142l2.677,0.714l2.708,15.713
			l2.709-25.711l2.649,20.712l2.677,8.57l2.708,27.854l2.709-12.142l2.649-36.425l2.677,8.57l2.708,4.285l2.709-24.997l2.678,3.571
			l2.677,2.857l2.708-1.428l2.709,24.997l2.649-11.427l2.677,2.857l2.708-25.712l2.709,11.427l2.649-11.427l2.677,22.14
			l2.708-16.427l2.709,23.569l2.649,1.428l2.677-15.713l2.708,4.999l2.709-2.143l2.678-27.14l2.677,22.855l2.708-4.285l2.709,11.427
			l2.649-29.997l2.677,12.142l2.708,11.427l2.709-4.285l2.649,2.143l2.677-9.285l2.708-10.713l2.709,19.998l2.649,2.857
			l2.677-14.284l2.708-9.285l2.709,37.139l2.678-42.852l2.677,50.709l2.708-14.284l2.709,26.426l2.649-27.14l2.677,29.283
			l2.708-19.284l2.709-16.427l2.649,6.428l2.677,6.428l2.708,7.856l2.709-11.427l2.649-10.713l2.677-22.855l2.708,14.998
			l2.709,17.141l2.678-6.428l2.677-4.285l2.708-2.857l2.709-2.143l2.649,17.855l2.677-8.57l2.708,6.428l2.709-22.855l2.649,32.139
			l2.677,2.857l2.708-19.998l2.709,15.713l2.647-9.999l2.678,1.428l2.708-0.714l2.709,29.283l2.677-27.854l2.678,31.425
			l2.708,45.709l2.709-27.854l2.647-27.854l2.678-15.713l2.708-19.998l2.709,16.427l2.647-13.57l2.678,5.714l2.708,7.142
			l2.709,22.14l2.647-26.426l2.678,20.712l2.708-34.282l2.709,9.285l2.677,10.713l2.678,7.856l2.708,2.143l2.709-22.14l2.647,20.712
			l2.678-18.569l2.708,2.143l2.709,30.711l2.647-47.138l2.678,3.571l2.708,20.712l2.709-10.713l2.647,7.142l2.678,7.142l2.708,4.999
			l2.709-12.856l2.677,8.57l2.678-8.57l2.708,2.857l2.709,0.714l2.647-2.857l2.678-4.285l2.708-6.428l2.709,4.999l2.647-2.143
			l2.678,10.713l2.708,7.142l2.709-10.713l2.647-5.714l2.678,2.857"/>
		
			<path id="blue-line-a-mobile_00000011718256933395885610000014846900652497877902_" fill="none" stroke="#0397CC" stroke-width="3" stroke-linecap="round" stroke-linejoin="round" d="
			M83.11,221.146l0.96,100.337l0.96-36.086l0.971,61.61l0.971-67.771l0.95-37.846l0.96-7.921l0.971-1.76l0.971,7.041l0.95,31.685
			l0.96-11.442l0.971,32.565l0.971-27.285l0.95-1.76l0.96-39.607l0.971,56.329l0.971-52.809l0.96,37.846l0.96-17.603l0.971,45.768
			l0.971-77.453l0.95,42.247l0.96-35.206l0.971-2.64l0.971-5.281l0.95,76.573l0.96-17.603l0.971,0.88l0.971-2.64l0.95,29.045
			l0.96-30.805l0.971,6.161l0.971-46.648l0.96,13.202l0.96,33.446l0.971,13.202l0.971-42.247l0.95,45.768l0.96-13.202l0.971,40.487
			l0.971-11.442l0.95-10.562l0.96-27.285l0.971,69.532l0.971-136.423l0.95,80.093l0.96-9.682l0.971,20.243l0.971-58.09l0.96-15.843
			l0.96,49.288l0.971-27.285l0.971-29.925l0.95,51.929l0.96,57.209l0.971-52.809l0.971,64.251l0.949-38.726l0.96,41.367
			l0.971-19.363l0.971,29.045l0.949-67.771l0.96-36.086l0.971,13.202l0.971-33.446l0.96,55.449l0.96,7.041l0.971-6.161l0.971-16.723
			l0.95-28.165l0.96,5.281L151.527,303l0.971-11.442l0.95-132.902l0.96,108.258l0.971-12.322l0.971,42.247l0.95,2.64l0.96-22.884
			l0.971,17.603l0.971-2.64l0.96,81.854l0.96-66.011l0.971-72.172l0.971-3.521l0.95,96.816l0.96-68.651l0.971,80.973l0.971,15.843
			l0.95-69.532l0.96,29.045l0.971-14.962l0.971-45.768l0.95-35.206l0.96,10.562l0.971-3.521l0.971,4.401l0.96,8.801l0.96,28.165
			l0.971,5.281l0.971-5.281l0.95,2.64l0.96-22.884l0.971,28.165l0.971-7.041l0.95,17.603l0.96-18.483l0.971,14.962l0.971-7.041
			l0.95-12.322l0.96,7.921l0.971-30.805l0.971,43.127l0.96-29.045l0.96,26.404l0.971-26.404l0.971,11.442l0.95,8.801l0.96,0.88
			l0.971,19.363l0.971-31.685l0.95,25.524l0.96,10.562l0.971,34.326l0.971-14.962l0.95-44.887l0.96,10.562l0.971,5.281l0.971-30.805
			l0.96,4.401l0.96,3.521l0.971-1.76l0.971,30.805l0.95-14.082l0.96,3.521l0.971-31.685l0.971,14.082l0.95-14.082l0.96,27.285
			l0.971-20.243l0.971,29.045l0.95,1.76l0.96-19.363l0.971,6.161l0.971-2.64l0.96-33.446l0.96,28.165l0.971-5.281l0.971,14.082
			l0.95-36.966l0.96,14.962l0.971,14.082l0.971-5.281l0.95,2.64l0.96-11.442l0.971-13.202l0.971,24.644l0.95,3.521l0.96-17.603
			l0.971-11.442l0.971,45.768l0.96-52.809l0.96,62.49l0.971-17.603l0.971,32.565l0.95-33.446l0.96,36.086l0.971-23.764l0.971-20.243
			l0.95,7.921l0.96,7.921l0.971,9.682l0.971-14.082l0.95-13.202l0.96-28.165l0.971,18.483l0.971,21.124l0.96-7.921l0.96-5.281
			l0.971-3.521l0.971-2.64l0.95,22.004l0.96-10.562l0.971,7.921l0.971-28.165l0.95,39.607l0.96,3.521l0.971-24.644l0.971,19.363
			l0.949-12.322l0.96,1.76l0.971-0.88l0.971,36.086l0.96-34.326l0.96,38.726l0.971,56.329l0.971-34.326l0.949-34.326l0.96-19.363
			l0.971-24.644l0.971,20.243l0.949-16.723l0.96,7.041l0.971,8.801l0.971,27.285l0.949-32.565l0.96,25.524l0.971-42.247
			l0.971,11.442l0.96,13.202l0.96,9.682l0.971,2.64l0.971-27.285l0.949,25.524l0.96-22.884l0.971,2.64l0.971,37.846l0.949-58.09
			l0.96,4.401l0.971,25.524l0.971-13.202l0.949,8.801l0.96,8.801l0.971,6.161l0.971-15.843l0.96,10.562l0.96-10.562l0.971,3.521
			l0.971,0.88l0.949-3.521l0.96-5.281l0.971-7.921l0.971,6.161l0.949-2.64l0.96,13.202l0.971,8.801l0.971-13.202l0.949-7.041
			l0.96,3.521l0.971,7.921"/>
	</g>
</g>
<style>
#g-gdp-mobile-interactive-img rect, #g-gdp-mobile-interactive-img circle, #g-gdp-mobile-interactive-img path, #g-gdp-mobile-interactive-img line, #g-gdp-mobile-interactive-img polyline, #g-gdp-mobile-interactive-img polygon { vector-effect: non-scaling-stroke; }
</style>
</svg>

