<?xml version="1.0" encoding="utf-8"?>
<!-- Generator: Adobe Illustrator 26.2.1, SVG Export Plug-In . SVG Version: 6.00 Build 0)  -->
<svg version="1.2" baseProfile="tiny" id="g-gdp-desktop-interactive-img" xmlns="http://www.w3.org/2000/svg" xmlns:xlink="http://www.w3.org/1999/xlink"
	 x="0px" y="0px" viewBox="0 0 800 509.513" overflow="visible" xml:space="preserve">
<g>
	<g id="q1-gdp-arrow_00000075874013143930128880000015594600933982851971_">
		<g id="q1-gdp-arrow-desktop_00000084493765786423836790000005455937426423655338_">
			<path fill="none" stroke="#464646" d="M750.565,265.549c-0.949,6.475,10.051,16.873,10.051,16.873"/>
			<g>
				<polygon fill="#464646" points="746.642,268.793 747.357,269.493 750.803,265.967 754.069,269.662 754.818,268.999 
					750.84,264.499 				"/>
			</g>
		</g>
		<g id="q1-gdp-arrow-mobile_00000140709017756746759820000014578792267062828944_">
			<path fill="none" stroke="#464646" d="M1142.159,320.249c-0.949,6.475,10.051,16.873,10.051,16.873"/>
			<g>
				<polygon fill="#464646" points="1138.237,323.493 1138.952,324.193 1142.398,320.667 1145.664,324.362 1146.413,323.698 
					1142.435,319.199 				"/>
			</g>
		</g>
	</g>
	<g id="blue-line-d_00000183934804897662859920000011754989509181766321_">
		
			<path id="blue-line-d-mobile_00000009592127022315887650000001518467728250245310_" fill="none" stroke="#0397CC" stroke-width="3" stroke-linecap="round" stroke-linejoin="round" d="
			M1136.307,5.511l0.971,257.883l0.971-15.843l0.949-3.521l0.96,38.726l0.971-40.487l0.971,73.052"/>
		
			<path id="blue-line-d-desktop_00000133515951165371219070000000924620558781101222_" fill="none" stroke="#0397CC" stroke-width="3" stroke-linecap="round" stroke-linejoin="round" d="
			M734.683,11.598l2.708,209.263l2.709-12.856l2.648-2.857l2.678,31.425l2.708-32.854l2.709,59.279"/>
	</g>
	<g id="blue-line-c_00000055690923140139320560000004951044294211605419_">
		
			<path id="blue-line-c-mobile_00000028327143784100579980000017753105375536424372_" fill="none" stroke="#0397CC" stroke-width="3" stroke-linecap="round" stroke-linejoin="round" d="
			M1135.347,577.605l0.96-572.095"/>
		
			<path id="blue-line-c-desktop_00000023253346460961022970000008378524643667138207_" fill="none" stroke="#0397CC" stroke-width="3" stroke-linecap="round" stroke-linejoin="round" d="
			M732.005,475.833l2.678-464.235"/>
	</g>
	<g id="gfc-gdp-arrow_00000045605799702899396320000010277843488830269321_">
		<g id="gfc-gdp-arrow-desktop_00000100373668127550306360000001295401819988005295_">
			<path fill="none" stroke="#464646" d="M608.451,316.571c0.585,15.446-26.98,3.978-26.98,3.978"/>
			<g>
				<polygon fill="#464646" points="604.114,319.727 604.819,320.437 608.312,316.956 611.528,320.694 612.286,320.04 
					608.368,315.489 				"/>
			</g>
		</g>
		<g id="gfc-gdp-arrow-mobile_00000012430916318767868830000004451816914665530253_">
			<path fill="none" stroke="#464646" d="M1090.907,380.818c0.585,15.446-26.98,3.978-26.98,3.978"/>
			<g>
				<polygon fill="#464646" points="1086.57,383.974 1087.276,384.683 1090.768,381.203 1093.984,384.94 1094.742,384.287 
					1090.824,379.735 				"/>
			</g>
		</g>
	</g>
	<g id="oil-gdp-arrow_00000116937217319821006990000014444762770225168544_">
		<g id="oil-gdp-arrow-desktop_00000175315540410340804890000012705334806337706129_">
			<path fill="none" stroke="#464646" d="M302.221,312.663c-6.301,25.46,26.435,8.72,26.435,8.72"/>
			<g>
				<polygon fill="#464646" points="297.568,315.044 298.139,315.866 302.185,313.048 304.7,317.289 305.561,316.778 
					302.496,311.613 				"/>
			</g>
		</g>
		<g id="oil-gdp-arrow-mobile_00000067217521593597073750000012824674482164749747_">
			<path fill="none" stroke="#464646" d="M981.214,376.182c5.707,23.305-26.333,8.991-26.333,8.991"/>
			<g>
				<polygon fill="#464646" points="977.841,380.277 978.698,380.794 981.24,376.569 985.268,379.413 985.844,378.595 
					980.938,375.132 				"/>
			</g>
		</g>
	</g>
	<g id="blue-line-b_00000076578530134753674230000016182087556596893848_">
		
			<path id="blue-line-b-mobile_00000000217374985363265190000012918234496151215756_" fill="none" stroke="#0397CC" stroke-width="3" stroke-linecap="round" stroke-linejoin="round" d="
			M1133.415,286.277l0.971,61.61l0.96,229.718"/>
		
			<path id="blue-line-b-desktop_00000165956367005142382160000002659895262330458296_" fill="none" stroke="#0397CC" stroke-width="3" stroke-linecap="round" stroke-linejoin="round" d="
			M723.912,233.002l2.708,6.428l2.709,49.995l2.677,186.408"/>
	</g>
	<g id="blue-line-a_00000044877072085336383180000004974387159400101052_">
		
			<path id="blue-line-a-desktop_00000091008576197647969660000011680903970073382847_" fill="none" stroke="#0397CC" stroke-width="3" stroke-linecap="round" stroke-linejoin="round" d="
			M84.37,186.579l2.678,81.42l2.677-29.283l2.708,49.995l2.709-54.994l2.649-30.711l2.677-6.428l2.708-1.428l2.709,5.714
			l2.649,25.711l2.677-9.285l2.708,26.426l2.709-22.14l2.649-1.428l2.677-32.139l2.708,45.709l2.709-42.852l2.678,30.711
			l2.677-14.284l2.708,37.139l2.709-62.85l2.649,34.282l2.677-28.568l2.708-2.143l2.709-4.285l2.649,62.136l2.677-14.284
			l2.708,0.714l2.709-2.143l2.649,23.569l2.677-24.997l2.708,4.999l2.709-37.853l2.678,10.713l2.677,27.14l2.708,10.713
			l2.709-34.282l2.649,37.139l2.677-10.713l2.708,32.854l2.709-9.285l2.649-8.57l2.677-22.14l2.708,56.422l2.709-110.702
			l2.649,64.993l2.677-7.856l2.708,16.427l2.709-47.138l2.678-12.856l2.677,39.996l2.708-22.14l2.709-24.283l2.649,42.138
			l2.677,46.424l2.708-42.852l2.709,52.137l2.647-31.425l2.678,33.568l2.708-15.713l2.709,23.569l2.647-54.994l2.678-29.283
			l2.708,10.713l2.709-27.14l2.678,44.995l2.677,5.714l2.708-4.999l2.709-13.57l2.649-22.855l2.677,4.285L275.163,253l2.709-9.285
			l2.649-107.845l2.677,87.848l2.708-9.999l2.709,34.282l2.649,2.143l2.677-18.569l2.708,14.284l2.709-2.143l2.678,66.421
			l2.677-53.566l2.708-58.565l2.709-2.857l2.649,78.563l2.677-55.708l2.708,65.707l2.709,12.856l2.649-56.422l2.677,23.569
			l2.708-12.142l2.709-37.139l2.649-28.568l2.677,8.57l2.708-2.857l2.709,3.571l2.678,7.142l2.677,22.855l2.708,4.285l2.709-4.285
			l2.649,2.143l2.677-18.569l2.708,22.855l2.709-5.714l2.649,14.284l2.677-14.998l2.708,12.142l2.709-5.714l2.649-9.999l2.677,6.428
			l2.708-24.997l2.709,34.996l2.678-23.569l2.677,21.426l2.708-21.426l2.709,9.285l2.649,7.142l2.677,0.714l2.708,15.713
			l2.709-25.711l2.649,20.712l2.677,8.57l2.708,27.854l2.709-12.142l2.649-36.425l2.677,8.57l2.708,4.285l2.709-24.997l2.678,3.571
			l2.677,2.857l2.708-1.428l2.709,24.997l2.649-11.427l2.677,2.857l2.708-25.712l2.709,11.427l2.649-11.427l2.677,22.14
			l2.708-16.427l2.709,23.569l2.649,1.428l2.677-15.713l2.708,4.999l2.709-2.143l2.678-27.14l2.677,22.855l2.708-4.285l2.709,11.427
			l2.649-29.997l2.677,12.142l2.708,11.427l2.709-4.285l2.649,2.143l2.677-9.285l2.708-10.713l2.709,19.998l2.649,2.857
			l2.677-14.284l2.708-9.285l2.709,37.139l2.678-42.852l2.677,50.709l2.708-14.284l2.709,26.426l2.649-27.14l2.677,29.283
			l2.708-19.284l2.709-16.427l2.649,6.428l2.677,6.428l2.708,7.856l2.709-11.427l2.649-10.713l2.677-22.855l2.708,14.998
			l2.709,17.141l2.678-6.428l2.677-4.285l2.708-2.857l2.709-2.143l2.649,17.855l2.677-8.57l2.708,6.428l2.709-22.855l2.649,32.139
			l2.677,2.857l2.708-19.998l2.709,15.713l2.647-9.999l2.678,1.428l2.708-0.714l2.709,29.283l2.677-27.854l2.678,31.425
			l2.708,45.709l2.709-27.854l2.647-27.854l2.678-15.713l2.708-19.998l2.709,16.427l2.647-13.57l2.678,5.714l2.708,7.142
			l2.709,22.14l2.647-26.426l2.678,20.712l2.708-34.282l2.709,9.285l2.677,10.713l2.678,7.856l2.708,2.143l2.709-22.14l2.647,20.712
			l2.678-18.569l2.708,2.143l2.709,30.711l2.647-47.138l2.678,3.571l2.708,20.712l2.709-10.713l2.647,7.142l2.678,7.142l2.708,4.999
			l2.709-12.856l2.677,8.57l2.678-8.57l2.708,2.857l2.709,0.714l2.647-2.857l2.678-4.285l2.708-6.428l2.709,4.999l2.647-2.143
			l2.678,10.713l2.708,7.142l2.709-10.713l2.647-5.714l2.678,2.857"/>
		
			<path id="blue-line-a-mobile_00000161607967228436228620000004531242026105244319_" fill="none" stroke="#0397CC" stroke-width="3" stroke-linecap="round" stroke-linejoin="round" d="
			M903.11,221.146l0.96,100.337l0.96-36.086l0.971,61.61l0.971-67.771l0.95-37.846l0.96-7.921l0.971-1.76l0.971,7.041l0.95,31.685
			l0.96-11.442l0.971,32.565l0.971-27.285l0.95-1.76l0.96-39.607l0.971,56.329l0.971-52.809l0.96,37.846l0.96-17.603l0.971,45.768
			l0.971-77.453l0.95,42.247l0.96-35.206l0.971-2.64l0.971-5.281l0.95,76.573l0.96-17.603l0.971,0.88l0.971-2.64l0.95,29.045
			l0.96-30.805l0.971,6.161l0.971-46.648l0.96,13.202l0.96,33.446l0.971,13.202l0.971-42.247l0.95,45.768l0.96-13.202l0.971,40.487
			l0.971-11.442l0.95-10.562l0.96-27.285l0.971,69.532l0.971-136.423l0.95,80.093l0.96-9.682l0.971,20.243l0.971-58.09l0.96-15.843
			l0.96,49.288l0.971-27.285l0.971-29.925l0.95,51.929l0.96,57.209l0.971-52.809l0.971,64.251l0.949-38.726l0.96,41.367
			l0.971-19.363l0.971,29.045l0.949-67.771l0.96-36.086l0.971,13.202l0.971-33.446l0.96,55.449l0.96,7.041l0.971-6.161l0.971-16.723
			l0.95-28.165l0.96,5.281L971.527,303l0.971-11.442l0.95-132.902l0.96,108.258l0.971-12.322l0.971,42.247l0.95,2.64l0.96-22.884
			l0.971,17.603l0.971-2.64l0.96,81.854l0.96-66.011l0.971-72.172l0.971-3.521l0.95,96.816l0.96-68.651l0.971,80.973l0.971,15.843
			l0.95-69.532l0.96,29.045l0.971-14.962l0.971-45.768l0.95-35.206l0.96,10.562l0.971-3.521l0.971,4.401l0.96,8.801l0.96,28.165
			l0.971,5.281l0.971-5.281l0.95,2.64l0.96-22.884l0.971,28.165l0.971-7.041l0.95,17.603l0.96-18.483l0.971,14.962l0.971-7.041
			l0.95-12.322l0.96,7.921l0.971-30.805l0.971,43.127l0.96-29.045l0.96,26.404l0.971-26.404l0.971,11.442l0.95,8.801l0.96,0.88
			l0.971,19.363l0.971-31.685l0.95,25.524l0.96,10.562l0.971,34.326l0.971-14.962l0.95-44.887l0.96,10.562l0.971,5.281l0.971-30.805
			l0.96,4.401l0.96,3.521l0.971-1.76l0.971,30.805l0.95-14.082l0.96,3.521l0.971-31.685l0.971,14.082l0.95-14.082l0.96,27.285
			l0.971-20.243l0.971,29.045l0.95,1.76l0.96-19.363l0.971,6.161l0.971-2.64l0.96-33.446l0.96,28.165l0.971-5.281l0.971,14.082
			l0.95-36.966l0.96,14.962l0.971,14.082l0.971-5.281l0.95,2.64l0.96-11.442l0.971-13.202l0.971,24.644l0.95,3.521l0.96-17.603
			l0.971-11.442l0.971,45.768l0.96-52.809l0.96,62.49l0.971-17.603l0.971,32.565l0.95-33.446l0.96,36.086l0.971-23.764l0.971-20.243
			l0.95,7.921l0.96,7.921l0.971,9.682l0.971-14.082l0.95-13.202l0.96-28.165l0.971,18.483l0.971,21.124l0.96-7.921l0.96-5.281
			l0.971-3.521l0.971-2.64l0.95,22.004l0.96-10.562l0.971,7.921l0.971-28.165l0.95,39.607l0.96,3.521l0.971-24.644l0.971,19.363
			l0.949-12.322l0.96,1.76l0.971-0.88l0.971,36.086l0.96-34.326l0.96,38.726l0.971,56.329l0.971-34.326l0.949-34.326l0.96-19.363
			l0.971-24.644l0.971,20.243l0.949-16.723l0.96,7.041l0.971,8.801l0.971,27.285l0.949-32.565l0.96,25.524l0.971-42.247
			l0.971,11.442l0.96,13.202l0.96,9.682l0.971,2.64l0.971-27.285l0.949,25.524l0.96-22.884l0.971,2.64l0.971,37.846l0.949-58.09
			l0.96,4.401l0.971,25.524l0.971-13.202l0.949,8.801l0.96,8.801l0.971,6.161l0.971-15.843l0.96,10.562l0.96-10.562l0.971,3.521
			l0.971,0.88l0.949-3.521l0.96-5.281l0.971-7.921l0.971,6.161l0.949-2.64l0.96,13.202l0.971,8.801l0.971-13.202l0.949-7.041
			l0.96,3.521l0.971,7.921"/>
	</g>
</g>
<style>
#g-gdp-desktop-interactive-img rect, #g-gdp-desktop-interactive-img circle, #g-gdp-desktop-interactive-img path, #g-gdp-desktop-interactive-img line, #g-gdp-desktop-interactive-img polyline, #g-gdp-desktop-interactive-img polygon { vector-effect: non-scaling-stroke; }
</style>
</svg>

