<?xml version="1.0" encoding="utf-8"?>
<!-- Generator: Adobe Illustrator 26.2.1, SVG Export Plug-In . SVG Version: 6.00 Build 0)  -->
<svg version="1.2" baseProfile="tiny" id="g-inflation-desktop-mobile-interactive-img" xmlns="http://www.w3.org/2000/svg" xmlns:xlink="http://www.w3.org/1999/xlink"
	 x="0px" y="0px" viewBox="0 0 380 613.369" overflow="visible" xml:space="preserve">
<g>
	<g id="arrow-3_00000038386990579177269970000006652221228694679939_">
		<g id="arrow-3-desktop_00000118394227999611292620000017500338386341747887_">
			<path fill="none" stroke="#464646" d="M-312.899,404.701c17.064,26.413-23.797,21.323-23.797,21.323"/>
			<g>
				<polygon fill="#464646" points="-314.682,409.684 -313.701,409.883 -312.73,405.048 -307.979,406.37 -307.712,405.405 
					-313.499,403.797 				"/>
			</g>
		</g>
		<g id="arrow-3-mobile_00000070827125741589174980000002654110615874750376_">
			<path fill="none" stroke="#464646" d="M222.508,489.107c17.064,26.413-23.797,21.323-23.797,21.323"/>
			<g>
				<polygon fill="#464646" points="220.725,494.09 221.706,494.289 222.677,489.454 227.427,490.776 227.695,489.811 
					221.908,488.203 				"/>
			</g>
		</g>
	</g>
	<g id="arrow-2_00000158750426456929729090000016452481752003946653_">
		<g id="arrow-2-desktop_00000081630232601339171900000006296461983812551065_">
			<path fill="none" stroke="#464646" d="M-95.308,35.689c-1.207-22.501-29.243-1.563-29.243-1.563"/>
			<g>
				<polygon fill="#464646" points="-91.598,32.022 -92.39,31.409 -95.404,35.311 -99.076,32.02 -99.743,32.766 -95.27,36.774 				
					"/>
			</g>
		</g>
		<g id="arrow-2-mobile_00000163770704432118960530000013758682986467041161_">
			<path fill="none" stroke="#464646" d="M306.306,35.689c-1.207-22.501-29.243-1.563-29.243-1.563"/>
			<g>
				<polygon fill="#464646" points="310.015,32.022 309.224,31.409 306.21,35.312 302.538,32.02 301.87,32.766 306.344,36.774 				
					"/>
			</g>
		</g>
	</g>
	<g id="red-line-a_00000178186202462866478420000000292112294559036063_">
		
			<path id="red-line-a-mobile_00000001655019547185895430000001058166902026716808_" fill="none" stroke="#D62728" stroke-width="3" stroke-linecap="round" stroke-linejoin="round" d="
			M48.029,241.742l0.559,8.449l0.505-4.225l0.559-12.674l0.54,16.899l0.559,38.022l0.541,4.225l0.559-4.225l0.559-12.674h0.541
			l0.56-16.899l0.541-21.124l0.559-16.899l0.559-16.899l0.523-8.449l0.559,8.449l0.54,16.899h0.559h0.541l0.559-4.225h0.559h0.541
			l0.56,8.449l0.541,8.449l0.559,16.899h0.559l0.505-8.449h0.559l0.54-4.225h0.559l0.541,8.449l0.559,12.674l0.559,8.449
			l0.541-4.225l0.56-12.674l0.541-12.674l0.559-4.225l0.559,33.798l0.505,33.798l0.559,29.573l0.54,4.225l0.559-12.674l0.541,8.449
			h0.559l0.559-8.449l0.541,12.674l0.56,8.449l0.541,8.449l0.559-16.899l0.559-25.348l0.505-38.022l0.559-33.798l0.54-4.225
			l0.559,8.449l0.541-8.449l0.559-16.899l0.559-4.225l0.541-4.225h0.56l0.541,4.225l0.559,16.899l0.559,4.225h0.523h0.559h0.54
			l0.559-4.225l0.541-4.225l0.559,4.225l0.559-8.449h0.541h0.56l0.541-8.449l0.559-12.674l0.559-4.225l0.505-8.449l0.559-4.225
			l0.54-12.674l0.559,8.449l0.541,8.449l0.559,12.674l0.559,16.899l0.541-8.449l0.56-8.449l0.541,4.225l0.559-25.348l0.559-4.225
			l0.505,4.225l0.559,21.124l0.54,12.674l0.559-12.674l0.541-4.225l0.559-33.798l0.559-25.348l0.541-4.225h0.56l0.541,8.449
			l0.559,16.899l0.559,16.899l0.505,16.899h0.559l0.54-4.225l0.559,12.674l0.541,12.674l0.559,25.348l0.559,16.899l0.541,21.124
			l0.56-4.225l0.541-4.225l0.559,21.124l0.559-8.449l0.523-16.899h0.559l0.54,8.449l0.559-4.225l0.541-4.225l0.559,4.225
			l0.559,4.225l0.541-8.449l0.56,8.449l0.541,4.225l0.559-16.899l0.559,4.225l0.505,4.225l0.559-4.225h0.54l0.559,8.449l0.541,8.449
			h0.559l0.559,4.225l0.541-4.225l0.56,4.225h0.541l0.559,8.449h0.559h0.505l0.559,4.225l0.54,4.225l0.559-8.449l0.541-12.674
			l0.559-4.225l0.559-4.225l0.541,16.899l0.56-4.225h0.541l0.559-4.225l0.559-4.225h0.505l0.559-8.449l0.54-4.225l0.559,8.449
			l0.541,8.449l0.559,8.449l0.559,4.225l0.541-12.674l0.56,8.449l0.541,4.225l0.559-8.449h0.559l0.523-4.225l0.559-4.225h0.54
			l0.559,4.225l0.541-8.449l0.559,4.225l0.559-4.225h0.541l0.56-12.674h0.541l0.559,12.674h0.559l0.505,8.449l0.559,12.674
			l0.54,12.674l0.559-4.225l0.541,4.225h0.559h0.559l0.541,4.225l0.56,12.674l0.541,4.225l0.559,4.225l0.559,8.449h0.505h0.559
			l0.54-12.674h0.559h0.541l0.559,4.225l0.559,4.225h0.541h0.56l0.541-4.225l0.559-4.225l0.559,4.225l0.505-4.225l0.559-25.348
			l0.54,8.449l0.559,4.225l0.541-4.225l0.559-8.449l0.559-12.674h0.541h0.56l0.541-4.225h0.559l0.559-21.124l0.523-25.348
			l0.559,29.573l0.54-4.225l0.559-21.124h0.541l0.559,12.674l0.559-4.225l0.541,4.225h0.56h0.541l0.559-12.674l0.559,8.449
			l0.505,25.348l0.559-16.899l0.54-12.674l0.559,16.899l0.541,21.124h0.559l0.559,4.225l0.541,21.123l0.56,8.449l0.541,12.674
			l0.559,21.124h0.559l0.505-16.899l0.559-4.225l0.54,16.899l0.559,4.225"/>
		
			<path id="red-line-a-desktop_00000102504022817871710580000017150356445473249211_" fill="none" stroke="#D62728" stroke-width="3" stroke-linecap="round" stroke-linejoin="round" d="
			M-770.831,203.291l1.464,6.856l1.322-3.428l1.464-10.285l1.415,13.713l1.464,30.854l1.417,3.428l1.464-3.428l1.464-10.285h1.417
			l1.466-13.713l1.417-17.141l1.464-13.713l1.464-13.713l1.37-6.856l1.464,6.856l1.415,13.713h1.464h1.417l1.464-3.428h1.464h1.417
			l1.466,6.856l1.417,6.856l1.464,13.713h1.464l1.322-6.856h1.464l1.415-3.428h1.464l1.417,6.856l1.464,10.285l1.464,6.856
			l1.417-3.428l1.466-10.285l1.417-10.285l1.464-3.428l1.464,27.426l1.322,27.426l1.464,23.997l1.415,3.428l1.464-10.285
			l1.417,6.856h1.464l1.464-6.856l1.417,10.285l1.466,6.856l1.417,6.856l1.464-13.713l1.464-20.569l1.322-30.854l1.464-27.426
			l1.415-3.428l1.464,6.856l1.417-6.856l1.464-13.713l1.464-3.428l1.417-3.428h1.466l1.417,3.428l1.464,13.713l1.464,3.428h1.37
			h1.464h1.415l1.464-3.428l1.417-3.428l1.464,3.428l1.464-6.856h1.417h1.466l1.417-6.856l1.464-10.285l1.464-3.428l1.322-6.856
			l1.464-3.428l1.415-10.285l1.464,6.856l1.417,6.856l1.464,10.285l1.464,13.713l1.417-6.856l1.466-6.856l1.417,3.428l1.464-20.569
			l1.464-3.428l1.322,3.428l1.464,17.141l1.415,10.285l1.464-10.285l1.417-3.428l1.464-27.426l1.464-20.569l1.417-3.428h1.466
			l1.417,6.856l1.464,13.713l1.464,13.713l1.322,13.713h1.464l1.415-3.428l1.464,10.285l1.417,10.285l1.464,20.569l1.464,13.713
			l1.417,17.141l1.466-3.428l1.417-3.428l1.464,17.141l1.464-6.856l1.37-13.713h1.464l1.415,6.856l1.464-3.428l1.417-3.428
			l1.464,3.428l1.464,3.428l1.417-6.856l1.466,6.856l1.417,3.428l1.464-13.713l1.464,3.428l1.322,3.428l1.464-3.428h1.415
			l1.464,6.856l1.417,6.856h1.464l1.464,3.428l1.417-3.428l1.466,3.428h1.417l1.464,6.856h1.464h1.322l1.464,3.428l1.415,3.428
			l1.464-6.856l1.417-10.285l1.464-3.428l1.464-3.428l1.417,13.713l1.466-3.428h1.417l1.464-3.428l1.464-3.428h1.322l1.464-6.856
			l1.415-3.428l1.464,6.856l1.417,6.856l1.464,6.856l1.464,3.428l1.417-10.285l1.466,6.856l1.417,3.428l1.464-6.856h1.464
			l1.37-3.428l1.464-3.428h1.415l1.464,3.428l1.417-6.856l1.464,3.428l1.464-3.428h1.417l1.466-10.285h1.417l1.464,10.285h1.464
			l1.322,6.856l1.464,10.285l1.415,10.285l1.464-3.428l1.417,3.428h1.464h1.464l1.417,3.428l1.466,10.285l1.417,3.428l1.464,3.428
			l1.464,6.856h1.322h1.464l1.415-10.285h1.464h1.417l1.464,3.428l1.464,3.428h1.417h1.466l1.417-3.428l1.464-3.428l1.464,3.428
			l1.322-3.428l1.464-20.569l1.415,6.856l1.464,3.428l1.417-3.428l1.464-6.856l1.464-10.285h1.417h1.466l1.417-3.428h1.464
			l1.464-17.141l1.37-20.569l1.464,23.997l1.415-3.428l1.464-17.141h1.417l1.464,10.285l1.464-3.428l1.417,3.428h1.466h1.417
			l1.464-10.285l1.464,6.856l1.322,20.569l1.464-13.713l1.415-10.285l1.464,13.713l1.417,17.141h1.464l1.464,3.428l1.417,17.141
			l1.466,6.856l1.417,10.285l1.464,17.141h1.464l1.322-13.713l1.464-3.428l1.415,13.713l1.464,3.428"/>
	</g>
	<g id="red-line-b_00000125597961367246110850000010513630264503025301_">
		
			<path id="red-line-b-desktop_00000046319058131921056690000014177442269609866661_" fill="none" stroke="#D62728" stroke-width="3" stroke-linecap="round" stroke-linejoin="round" d="
			M-435.934,292.424l1.417-13.713l1.464-10.285l1.464,10.285l1.417-17.141l1.466-6.856l1.417-6.856l1.464-6.856l1.464-13.713h1.322
			l1.464,27.426l1.415,3.428h1.464h1.417l1.464-3.428l1.464-3.428l1.417,10.285l1.466,6.856l1.417-3.428h1.464l1.464,6.856h1.37
			l1.464-20.569l1.415-27.426l1.464-6.856l1.417,10.285l1.464,10.285l1.464,6.856l1.417-23.997l1.466-10.285l1.417,6.856
			l1.464,10.285h1.464l1.322-3.428l1.464-13.713l1.415,23.997l1.464,10.285l1.417-23.997l1.464-13.713l1.464-37.71l1.417,13.713
			l1.466,27.426l1.417,3.428l1.464-20.569l1.464,13.713l1.322,6.856l1.464-3.428l1.415-23.997l1.464-3.428l1.417,6.856l1.464,10.285
			l1.464,58.279l1.417,27.426l1.466-23.997l1.417-17.141l1.464,13.713l1.464-10.285l1.322-13.713l1.462,6.856l1.417-3.428h1.464
			l1.417,10.285l1.464,13.713l1.464-27.426l1.417-23.997l1.464-27.426l1.419,6.856l1.464-6.856l1.464,10.285h1.37l1.462,3.428
			l1.417-10.285l1.464-27.426l1.417-20.569l1.464,6.856l1.464,17.141l1.417,41.138l1.464,89.133l1.419,34.282l1.464,3.428
			l1.464-6.856l1.322,20.569l1.462,10.285l1.417,20.569l1.464,3.428l1.417,23.997"/>
		
			<path id="red-line-b-mobile_00000075872894882954569630000000938356312471023239_" fill="none" stroke="#D62728" stroke-width="3" stroke-linecap="round" stroke-linejoin="round" d="
			M175.849,351.584l0.541-16.899l0.559-12.674l0.559,12.674l0.541-21.124l0.56-8.449l0.541-8.449l0.559-8.449l0.559-16.899h0.505
			l0.559,33.798l0.54,4.225h0.559h0.541l0.559-4.225l0.559-4.225l0.541,12.674l0.56,8.449l0.541-4.225h0.559l0.559,8.449h0.523
			l0.559-25.348l0.54-33.798l0.559-8.449l0.541,12.674l0.559,12.674l0.559,8.449l0.541-29.573l0.56-12.674l0.541,8.449l0.559,12.674
			h0.559l0.505-4.225l0.559-16.899l0.54,29.573l0.559,12.674l0.541-29.573l0.559-16.899l0.559-46.472l0.541,16.899l0.56,33.798
			l0.541,4.225l0.559-25.348l0.559,16.899l0.505,8.449l0.559-4.225l0.54-29.573l0.559-4.225l0.541,8.449l0.559,12.674l0.559,71.82
			l0.541,33.798l0.56-29.573l0.541-21.123l0.559,16.899l0.559-12.674l0.505-16.899l0.558,8.449l0.541-4.225h0.559l0.541,12.674
			l0.559,16.899l0.559-33.798l0.541-29.573l0.559-33.798l0.542,8.449l0.559-8.449l0.559,12.674h0.523l0.558,4.225l0.541-12.674
			l0.559-33.798l0.541-25.348l0.559,8.449l0.559,21.124l0.541,50.696l0.559,109.842l0.542,42.247l0.559,4.225l0.559-8.449
			l0.505,25.348l0.558,12.674l0.541,25.348l0.559,4.225l0.541,29.573"/>
	</g>
	<g id="red-line-c_00000064326394285957532220000009060995553397754025_">
		
			<path id="red-line-c-desktop_00000049900051677697843650000002996485327970824882_" fill="none" stroke="#D62728" stroke-width="3" stroke-linecap="round" stroke-linejoin="round" d="
			M-313.753,402.127l1.464-20.569l1.464-6.856l1.417-37.71l1.464-68.564l1.419-30.854l1.464,3.428l1.464,17.141l1.322-6.856
			l1.462,3.428l1.417,6.856l1.464,30.854l1.417-3.428l1.464,3.428h1.464l1.417-3.428l1.464,3.428l1.419-13.713l1.464-3.428
			l1.464-17.141l1.322-20.569l1.462-17.141l1.417-13.713h1.464h1.417l1.464-6.856l1.464-3.428l1.417,13.713l1.464,3.428
			l1.419,13.713l1.464,3.428h1.464l1.37,6.856l1.462,13.713l1.417,20.569h1.464l1.417,10.285l1.464-10.285l1.464-10.285l1.417-6.856
			l1.464,13.713l1.419,3.428l1.464,3.428l1.464-13.713l1.322,17.141l1.462,13.713l1.417-10.285l1.464-13.713l1.417-6.856
			l1.464,17.141l1.464,10.285l1.417,6.856l1.464-6.856l1.419-10.285l1.464-3.428l1.464,17.141l1.322-13.713l1.462-17.141
			l1.417-3.428h1.464l1.417,3.428l1.464,10.285h1.464h1.417l1.464,13.713l1.419,17.141l1.464,30.854l1.464-3.428l1.322,3.428
			l1.462,3.428l1.417-6.856l1.464-3.428l1.417-3.428h1.464l1.464,6.856l1.417-6.856l1.464-10.285l1.419-6.856l1.464-23.997
			l1.464,13.713l1.37,3.428l1.462-6.856l1.417,3.428h1.464l1.417,6.856l1.464-10.285l1.464-13.713l1.417-3.428l1.464-3.428
			l1.419-13.713l1.464-13.713l1.464-6.856l1.322,10.285l1.462,6.856l1.417,10.285l1.464,10.285l1.417-3.428l1.464-6.856
			l1.464-10.285l1.417,6.856l1.464-6.856l1.419,3.428h1.464l1.464-3.428l1.322-6.856l1.462-3.428l1.417-10.285l1.464-3.428h1.417
			l1.464,6.856l1.464,13.713l1.417-6.856l1.464,10.285l1.419,10.285l1.464,10.285l1.464,3.428l1.322-13.713l1.462-3.428l1.417,6.856
			l1.464,6.856l1.417-6.856l1.464,3.428h1.464l1.417-3.428l1.464-10.285l1.419-6.856l1.464-6.856l1.464,6.856l1.37,27.426
			l1.462,41.138l1.417,6.856"/>
		
			<path id="red-line-c-mobile_00000101088269856517223780000003227162260095030164_" fill="none" stroke="#D62728" stroke-width="3" stroke-linecap="round" stroke-linejoin="round" d="
			M222.481,486.774l0.559-25.348l0.559-8.449l0.541-46.472l0.559-84.494l0.542-38.022l0.559,4.225l0.559,21.123l0.505-8.449
			l0.558,4.225l0.541,8.449l0.559,38.022l0.541-4.225l0.559,4.225h0.559l0.541-4.225l0.559,4.225l0.542-16.899l0.559-4.225
			l0.559-21.124l0.505-25.348L234,262.865l0.541-16.899h0.559h0.541l0.559-8.449l0.559-4.225l0.541,16.899l0.559,4.225l0.542,16.899
			l0.559,4.225h0.559l0.523,8.449l0.558,16.899l0.541,25.348h0.559l0.541,12.674l0.559-12.674l0.559-12.674l0.541-8.449
			l0.559,16.899l0.542,4.225l0.559,4.225l0.559-16.899l0.505,21.124l0.558,16.899l0.541-12.674l0.559-16.899l0.541-8.449
			l0.559,21.124l0.559,12.674l0.541,8.449l0.559-8.449l0.542-12.674l0.559-4.225l0.559,21.124l0.505-16.899l0.558-21.124
			l0.541-4.225h0.559l0.541,4.225l0.559,12.674h0.559h0.541l0.559,16.899l0.542,21.124l0.559,38.022l0.559-4.225l0.505,4.225
			l0.558,4.225l0.541-8.449l0.559-4.225l0.541-4.225h0.559l0.559,8.449l0.541-8.449l0.559-12.674l0.542-8.449l0.559-29.573
			l0.559,16.899l0.523,4.225l0.558-8.449l0.541,4.225h0.559l0.541,8.449l0.559-12.674l0.559-16.899l0.541-4.225l0.559-4.225
			l0.542-16.899l0.559-16.899l0.559-8.449l0.505,12.674l0.558,8.449l0.541,12.674l0.559,12.674l0.541-4.225l0.559-8.449
			l0.559-12.674l0.541,8.449l0.559-8.449l0.542,4.225h0.559l0.559-4.225l0.505-8.449l0.558-4.225l0.541-12.674l0.559-4.225h0.541
			l0.559,8.449l0.559,16.899l0.541-8.449l0.559,12.674l0.542,12.674l0.559,12.674l0.559,4.225l0.505-16.899l0.558-4.225l0.541,8.449
			l0.559,8.449l0.541-8.449l0.559,4.225h0.559l0.541-4.225l0.559-12.674l0.542-8.449l0.559-8.449l0.559,8.449l0.523,33.798
			l0.558,50.696l0.541,8.449"/>
	</g>
	<g id="red-line-d_00000041293390331979963410000008974006877745596592_">
		
			<path id="red-line-d-desktop_00000018236917446825051190000014633460710470195131_" fill="none" stroke="#D62728" stroke-width="3" stroke-linecap="round" stroke-linejoin="round" d="
			M-126.869,326.706l1.464-17.141l1.417-13.713l1.464-10.285l1.464-3.428l1.417,6.856h1.464l1.419-6.856h1.464l1.464-10.285
			l1.322-30.854"/>
		
			<path id="red-line-d-mobile_00000117652722875385344600000018283871707126665654_" fill="none" stroke="#D62728" stroke-width="3" stroke-linecap="round" stroke-linejoin="round" d="
			M293.809,393.831l0.559-21.124l0.541-16.899l0.559-12.674l0.559-4.225l0.541,8.449h0.559l0.542-8.449h0.559l0.559-12.674
			l0.505-38.022"/>
	</g>
	<g id="red-line-e_00000177486464104364467960000018394262019084294068_">
		
			<path id="red-line-e-desktop_00000180346754980529828790000002403096676350163116_" fill="none" stroke="#D62728" stroke-width="3" stroke-linecap="round" stroke-linejoin="round" d="
			M-112.509,241.001l1.462-54.851l1.417-27.426l1.464-13.713h1.417l1.464,3.428l1.464-3.428l1.417-27.426l1.464-20.569l1.419-6.856
			l1.464-17.141l1.464-13.713l1.322-20.569"/>
		
			<path id="red-line-e-mobile_00000096773303910440061620000005233375974974861728_" fill="none" stroke="#D62728" stroke-width="3" stroke-linecap="round" stroke-linejoin="round" d="
			M299.29,288.214l0.558-67.595l0.541-33.798l0.559-16.899h0.541l0.559,4.225l0.559-4.225l0.541-33.798l0.559-25.348l0.542-8.449
			l0.559-21.123l0.559-16.899l0.505-25.348"/>
	</g>
	<g id="arrow_00000164509679931485914940000008494556714974361255_">
		<g>
			<path fill="none" stroke="#464646" d="M-435.291,294.465c2.484,18.617-23.647,10.498-23.647,10.498"/>
			<g>
				<polygon fill="#464646" points="-439.142,298.138 -438.352,298.752 -435.33,294.855 -431.665,298.154 -430.996,297.409 
					-435.461,293.393 				"/>
			</g>
		</g>
		<g>
			<path fill="none" stroke="#464646" d="M175.53,355.241c2.484,18.617-23.647,10.498-23.647,10.498"/>
			<g>
				<polygon fill="#464646" points="171.678,358.914 172.469,359.528 175.49,355.632 179.156,358.93 179.825,358.186 
					175.359,354.169 				"/>
			</g>
		</g>
	</g>
</g>
<style>
#g-inflation-desktop-mobile-interactive-img rect, #g-inflation-desktop-mobile-interactive-img circle, #g-inflation-desktop-mobile-interactive-img path, #g-inflation-desktop-mobile-interactive-img line, #g-inflation-desktop-mobile-interactive-img polyline, #g-inflation-desktop-mobile-interactive-img polygon { vector-effect: non-scaling-stroke; }
</style>
</svg>

