<?xml version="1.0" encoding="utf-8"?>
<!-- Generator: Adobe Illustrator 26.2.1, SVG Export Plug-In . SVG Version: 6.00 Build 0)  -->
<svg version="1.2" baseProfile="tiny" id="g-inflation-desktop-desktop-interactive-img" xmlns="http://www.w3.org/2000/svg" xmlns:xlink="http://www.w3.org/1999/xlink"
	 x="0px" y="0px" viewBox="0 0 800 512.457" overflow="visible" xml:space="preserve">
<g>
	<g id="arrow-3_00000127730236090654210170000016477399354796695938_">
		<g id="arrow-3-desktop_00000057844052889437019110000016744450681757713309_">
			<path fill="none" stroke="#464646" d="M507.101,404.701c17.064,26.413-23.797,21.323-23.797,21.323"/>
			<g>
				<polygon fill="#464646" points="505.318,409.684 506.299,409.883 507.27,405.048 512.021,406.37 512.288,405.405 
					506.501,403.797 				"/>
			</g>
		</g>
		<g id="arrow-3-mobile_00000008870968977286163000000003560915572723148946_">
			<path fill="none" stroke="#464646" d="M1042.508,489.107c17.064,26.413-23.797,21.323-23.797,21.323"/>
			<g>
				<polygon fill="#464646" points="1040.725,494.09 1041.706,494.289 1042.677,489.454 1047.427,490.776 1047.695,489.811 
					1041.908,488.203 				"/>
			</g>
		</g>
	</g>
	<g id="arrow-2_00000069372679985799497720000008242731424251571609_">
		<g id="arrow-2-desktop_00000164516362051098660090000017878149683418213296_">
			<path fill="none" stroke="#464646" d="M724.692,35.689c-1.207-22.501-29.243-1.563-29.243-1.563"/>
			<g>
				<polygon fill="#464646" points="728.402,32.022 727.61,31.409 724.596,35.311 720.924,32.02 720.257,32.766 724.73,36.774 				
					"/>
			</g>
		</g>
		<g id="arrow-2-mobile_00000167357733655153165590000005002212926265984181_">
			<path fill="none" stroke="#464646" d="M1126.306,35.689c-1.207-22.501-29.243-1.563-29.243-1.563"/>
			<g>
				<polygon fill="#464646" points="1130.015,32.022 1129.224,31.409 1126.21,35.312 1122.538,32.02 1121.87,32.766 
					1126.344,36.774 				"/>
			</g>
		</g>
	</g>
	<g id="red-line-a_00000150074055231937220210000018344062567639472294_">
		
			<path id="red-line-a-mobile_00000117637774793025184100000010152055061194701242_" fill="none" stroke="#D62728" stroke-width="3" stroke-linecap="round" stroke-linejoin="round" d="
			M868.029,241.742l0.559,8.449l0.505-4.225l0.559-12.674l0.54,16.899l0.559,38.022l0.541,4.225l0.559-4.225l0.559-12.674h0.541
			l0.56-16.899l0.541-21.124l0.559-16.899l0.559-16.899l0.523-8.449l0.559,8.449l0.54,16.899h0.559h0.541l0.559-4.225h0.559h0.541
			l0.56,8.449l0.541,8.449l0.559,16.899h0.559l0.505-8.449h0.559l0.54-4.225h0.559l0.541,8.449l0.559,12.674l0.559,8.449
			l0.541-4.225l0.56-12.674l0.541-12.674l0.559-4.225l0.559,33.798l0.505,33.798l0.559,29.573l0.54,4.225l0.559-12.674l0.541,8.449
			h0.559l0.559-8.449l0.541,12.674l0.56,8.449l0.541,8.449l0.559-16.899l0.559-25.348l0.505-38.022l0.559-33.798l0.54-4.225
			l0.559,8.449l0.541-8.449l0.559-16.899l0.559-4.225l0.541-4.225h0.56l0.541,4.225l0.559,16.899l0.559,4.225h0.523h0.559h0.54
			l0.559-4.225l0.541-4.225l0.559,4.225l0.559-8.449h0.541h0.56l0.541-8.449l0.559-12.674l0.559-4.225l0.505-8.449l0.559-4.225
			l0.54-12.674l0.559,8.449l0.541,8.449l0.559,12.674l0.559,16.899l0.541-8.449l0.56-8.449l0.541,4.225l0.559-25.348l0.559-4.225
			l0.505,4.225l0.559,21.124l0.54,12.674l0.559-12.674l0.541-4.225l0.559-33.798l0.559-25.348l0.541-4.225h0.56l0.541,8.449
			l0.559,16.899l0.559,16.899l0.505,16.899h0.559l0.54-4.225l0.559,12.674l0.541,12.674l0.559,25.348l0.559,16.899l0.541,21.124
			l0.56-4.225l0.541-4.225l0.559,21.124l0.559-8.449l0.523-16.899h0.559l0.54,8.449l0.559-4.225l0.541-4.225l0.559,4.225
			l0.559,4.225l0.541-8.449l0.56,8.449l0.541,4.225l0.559-16.899l0.559,4.225l0.505,4.225l0.559-4.225h0.54l0.559,8.449l0.541,8.449
			h0.559l0.559,4.225l0.541-4.225l0.56,4.225h0.541l0.559,8.449h0.559h0.505l0.559,4.225l0.54,4.225l0.559-8.449l0.541-12.674
			l0.559-4.225l0.559-4.225l0.541,16.899l0.56-4.225h0.541l0.559-4.225l0.559-4.225h0.505l0.559-8.449l0.54-4.225l0.559,8.449
			l0.541,8.449l0.559,8.449l0.559,4.225l0.541-12.674l0.56,8.449l0.541,4.225l0.559-8.449h0.559l0.523-4.225l0.559-4.225h0.54
			l0.559,4.225l0.541-8.449l0.559,4.225l0.559-4.225h0.541l0.56-12.674h0.541l0.559,12.674h0.559l0.505,8.449l0.559,12.674
			l0.54,12.674l0.559-4.225l0.541,4.225h0.559h0.559l0.541,4.225l0.56,12.674l0.541,4.225l0.559,4.225l0.559,8.449h0.505h0.559
			l0.54-12.674h0.559h0.541l0.559,4.225l0.559,4.225h0.541h0.56l0.541-4.225l0.559-4.225l0.559,4.225l0.505-4.225l0.559-25.348
			l0.54,8.449l0.559,4.225l0.541-4.225l0.559-8.449l0.559-12.674h0.541h0.56l0.541-4.225h0.559l0.559-21.124l0.523-25.348
			l0.559,29.573l0.54-4.225l0.559-21.124h0.541l0.559,12.674l0.559-4.225l0.541,4.225h0.56h0.541l0.559-12.674l0.559,8.449
			l0.505,25.348l0.559-16.899l0.54-12.674l0.559,16.899l0.541,21.124h0.559l0.559,4.225l0.541,21.123l0.56,8.449l0.541,12.674
			l0.559,21.124h0.559l0.505-16.899l0.559-4.225l0.54,16.899l0.559,4.225"/>
		
			<path id="red-line-a-desktop_00000052794291473530058930000000674165360826659222_" fill="none" stroke="#D62728" stroke-width="3" stroke-linecap="round" stroke-linejoin="round" d="
			M49.169,203.291l1.464,6.856l1.322-3.428l1.464-10.285l1.415,13.713l1.464,30.854l1.417,3.428l1.464-3.428l1.464-10.285h1.417
			l1.466-13.713l1.417-17.141l1.464-13.713l1.464-13.713l1.37-6.856l1.464,6.856l1.415,13.713h1.464h1.417l1.464-3.428h1.464h1.417
			l1.466,6.856l1.417,6.856l1.464,13.713h1.464l1.322-6.856h1.464l1.415-3.428h1.464l1.417,6.856l1.464,10.285l1.464,6.856
			l1.417-3.428l1.466-10.285l1.417-10.285l1.464-3.428l1.464,27.426l1.322,27.426l1.464,23.997l1.415,3.428l1.464-10.285
			l1.417,6.856h1.464l1.464-6.856l1.417,10.285l1.466,6.856l1.417,6.856l1.464-13.713l1.464-20.569l1.322-30.854l1.464-27.426
			l1.415-3.428l1.464,6.856l1.417-6.856l1.464-13.713l1.464-3.428l1.417-3.428h1.466l1.417,3.428l1.464,13.713l1.464,3.428h1.37
			h1.464h1.415l1.464-3.428l1.417-3.428l1.464,3.428l1.464-6.856h1.417h1.466l1.417-6.856l1.464-10.285l1.464-3.428l1.322-6.856
			l1.464-3.428l1.415-10.285l1.464,6.856l1.417,6.856l1.464,10.285l1.464,13.713l1.417-6.856l1.466-6.856l1.417,3.428l1.464-20.569
			l1.464-3.428l1.322,3.428l1.464,17.141l1.415,10.285l1.464-10.285l1.417-3.428l1.464-27.426l1.464-20.569l1.417-3.428h1.466
			l1.417,6.856l1.464,13.713l1.464,13.713l1.322,13.713h1.464l1.415-3.428l1.464,10.285l1.417,10.285l1.464,20.569l1.464,13.713
			l1.417,17.141l1.466-3.428l1.417-3.428l1.464,17.141l1.464-6.856l1.37-13.713h1.464l1.415,6.856l1.464-3.428l1.417-3.428
			l1.464,3.428l1.464,3.428l1.417-6.856l1.466,6.856l1.417,3.428l1.464-13.713l1.464,3.428l1.322,3.428l1.464-3.428h1.415
			l1.464,6.856l1.417,6.856h1.464l1.464,3.428l1.417-3.428l1.466,3.428h1.417l1.464,6.856h1.464h1.322l1.464,3.428l1.415,3.428
			l1.464-6.856l1.417-10.285l1.464-3.428l1.464-3.428l1.417,13.713l1.466-3.428h1.417l1.464-3.428l1.464-3.428h1.322l1.464-6.856
			l1.415-3.428l1.464,6.856l1.417,6.856l1.464,6.856l1.464,3.428l1.417-10.285l1.466,6.856l1.417,3.428l1.464-6.856h1.464
			l1.37-3.428l1.464-3.428h1.415l1.464,3.428l1.417-6.856l1.464,3.428l1.464-3.428h1.417l1.466-10.285h1.417l1.464,10.285h1.464
			l1.322,6.856l1.464,10.285l1.415,10.285l1.464-3.428l1.417,3.428h1.464h1.464l1.417,3.428l1.466,10.285l1.417,3.428l1.464,3.428
			l1.464,6.856h1.322h1.464l1.415-10.285h1.464h1.417l1.464,3.428l1.464,3.428h1.417h1.466l1.417-3.428l1.464-3.428l1.464,3.428
			l1.322-3.428l1.464-20.569l1.415,6.856l1.464,3.428l1.417-3.428l1.464-6.856l1.464-10.285h1.417h1.466l1.417-3.428h1.464
			l1.464-17.141l1.37-20.569l1.464,23.997l1.415-3.428l1.464-17.141h1.417l1.464,10.285l1.464-3.428l1.417,3.428h1.466h1.417
			l1.464-10.285l1.464,6.856l1.322,20.569l1.464-13.713l1.415-10.285l1.464,13.713l1.417,17.141h1.464l1.464,3.428l1.417,17.141
			l1.466,6.856l1.417,10.285l1.464,17.141h1.464l1.322-13.713l1.464-3.428l1.415,13.713l1.464,3.428"/>
	</g>
	<g id="red-line-b_00000146475951286528601640000010033935688560819095_">
		
			<path id="red-line-b-desktop_00000176730309946484632330000002519501856973080207_" fill="none" stroke="#D62728" stroke-width="3" stroke-linecap="round" stroke-linejoin="round" d="
			M384.066,292.424l1.417-13.713l1.464-10.285l1.464,10.285l1.417-17.141l1.466-6.856l1.417-6.856l1.464-6.856l1.464-13.713h1.322
			l1.464,27.426l1.415,3.428h1.464h1.417l1.464-3.428l1.464-3.428l1.417,10.285l1.466,6.856l1.417-3.428h1.464l1.464,6.856h1.37
			l1.464-20.569l1.415-27.426l1.464-6.856l1.417,10.285l1.464,10.285l1.464,6.856l1.417-23.997l1.466-10.285l1.417,6.856
			l1.464,10.285h1.464l1.322-3.428l1.464-13.713l1.415,23.997l1.464,10.285l1.417-23.997l1.464-13.713l1.464-37.71l1.417,13.713
			l1.466,27.426l1.417,3.428l1.464-20.569l1.464,13.713l1.322,6.856l1.464-3.428l1.415-23.997l1.464-3.428l1.417,6.856l1.464,10.285
			l1.464,58.279l1.417,27.426l1.466-23.997l1.417-17.141l1.464,13.713l1.464-10.285l1.322-13.713l1.462,6.856l1.417-3.428h1.464
			l1.417,10.285l1.464,13.713l1.464-27.426l1.417-23.997l1.464-27.426l1.419,6.856l1.464-6.856l1.464,10.285h1.37l1.462,3.428
			l1.417-10.285l1.464-27.426l1.417-20.569l1.464,6.856l1.464,17.141l1.417,41.138l1.464,89.133l1.419,34.282l1.464,3.428
			l1.464-6.856l1.322,20.569l1.462,10.285l1.417,20.569l1.464,3.428l1.417,23.997"/>
		
			<path id="red-line-b-mobile_00000061462792653805367240000005135290020932576396_" fill="none" stroke="#D62728" stroke-width="3" stroke-linecap="round" stroke-linejoin="round" d="
			M995.849,351.584l0.541-16.899l0.559-12.674l0.559,12.674l0.541-21.124l0.56-8.449l0.541-8.449l0.559-8.449l0.559-16.899h0.505
			l0.559,33.798l0.54,4.225h0.559h0.541l0.559-4.225l0.559-4.225l0.541,12.674l0.56,8.449l0.541-4.225h0.559l0.559,8.449h0.523
			l0.559-25.348l0.54-33.798l0.559-8.449l0.541,12.674l0.559,12.674l0.559,8.449l0.541-29.573l0.56-12.674l0.541,8.449l0.559,12.674
			h0.559l0.505-4.225l0.559-16.899l0.54,29.573l0.559,12.674l0.541-29.573l0.559-16.899l0.559-46.472l0.541,16.899l0.56,33.798
			l0.541,4.225l0.559-25.348l0.559,16.899l0.505,8.449l0.559-4.225l0.54-29.573l0.559-4.225l0.541,8.449l0.559,12.674l0.559,71.82
			l0.541,33.798l0.56-29.573l0.541-21.123l0.559,16.899l0.559-12.674l0.505-16.899l0.558,8.449l0.541-4.225h0.559l0.541,12.674
			l0.559,16.899l0.559-33.798l0.541-29.573l0.559-33.798l0.542,8.449l0.559-8.449l0.559,12.674h0.523l0.558,4.225l0.541-12.674
			l0.559-33.798l0.541-25.348l0.559,8.449l0.559,21.124l0.541,50.696l0.559,109.842l0.542,42.247l0.559,4.225l0.559-8.449
			l0.505,25.348l0.558,12.674l0.541,25.348l0.559,4.225l0.541,29.573"/>
	</g>
	<g id="red-line-c_00000059283134928418559520000004556852783173014420_">
		
			<path id="red-line-c-desktop_00000034797797701358863160000016593937528233277099_" fill="none" stroke="#D62728" stroke-width="3" stroke-linecap="round" stroke-linejoin="round" d="
			M506.247,402.127l1.464-20.569l1.464-6.856l1.417-37.71l1.464-68.564l1.419-30.854l1.464,3.428l1.464,17.141l1.322-6.856
			l1.462,3.428l1.417,6.856l1.464,30.854l1.417-3.428l1.464,3.428h1.464l1.417-3.428l1.464,3.428l1.419-13.713l1.464-3.428
			l1.464-17.141l1.322-20.569l1.462-17.141l1.417-13.713h1.464h1.417l1.464-6.856l1.464-3.428l1.417,13.713l1.464,3.428
			l1.419,13.713l1.464,3.428h1.464l1.37,6.856l1.462,13.713l1.417,20.569h1.464l1.417,10.285l1.464-10.285l1.464-10.285l1.417-6.856
			l1.464,13.713l1.419,3.428l1.464,3.428l1.464-13.713l1.322,17.141l1.462,13.713l1.417-10.285l1.464-13.713l1.417-6.856
			l1.464,17.141l1.464,10.285l1.417,6.856l1.464-6.856l1.419-10.285l1.464-3.428l1.464,17.141l1.322-13.713l1.462-17.141
			l1.417-3.428h1.464l1.417,3.428l1.464,10.285h1.464h1.417l1.464,13.713l1.419,17.141l1.464,30.854l1.464-3.428l1.322,3.428
			l1.462,3.428l1.417-6.856l1.464-3.428l1.417-3.428h1.464l1.464,6.856l1.417-6.856l1.464-10.285l1.419-6.856l1.464-23.997
			l1.464,13.713l1.37,3.428l1.462-6.856l1.417,3.428h1.464l1.417,6.856l1.464-10.285l1.464-13.713l1.417-3.428l1.464-3.428
			l1.419-13.713l1.464-13.713l1.464-6.856l1.322,10.285l1.462,6.856l1.417,10.285l1.464,10.285l1.417-3.428l1.464-6.856
			l1.464-10.285l1.417,6.856l1.464-6.856l1.419,3.428h1.464l1.464-3.428l1.322-6.856l1.462-3.428l1.417-10.285l1.464-3.428h1.417
			l1.464,6.856l1.464,13.713l1.417-6.856l1.464,10.285l1.419,10.285l1.464,10.285l1.464,3.428l1.322-13.713l1.462-3.428l1.417,6.856
			l1.464,6.856l1.417-6.856l1.464,3.428h1.464l1.417-3.428l1.464-10.285l1.419-6.856l1.464-6.856l1.464,6.856l1.37,27.426
			l1.462,41.138l1.417,6.856"/>
		
			<path id="red-line-c-mobile_00000001662517522248520300000016585980915686418096_" fill="none" stroke="#D62728" stroke-width="3" stroke-linecap="round" stroke-linejoin="round" d="
			M1042.481,486.774l0.559-25.348l0.559-8.449l0.541-46.472l0.559-84.494l0.542-38.022l0.559,4.225l0.559,21.123l0.505-8.449
			l0.558,4.225l0.541,8.449l0.559,38.022l0.541-4.225l0.559,4.225h0.559l0.541-4.225l0.559,4.225l0.542-16.899l0.559-4.225
			l0.559-21.124l0.505-25.348l0.558-21.124l0.541-16.899h0.559h0.541l0.559-8.449l0.559-4.225l0.541,16.899l0.559,4.225
			l0.542,16.899l0.559,4.225h0.559l0.523,8.449l0.558,16.899l0.541,25.348h0.559l0.541,12.674l0.559-12.674l0.559-12.674
			l0.541-8.449l0.559,16.899l0.542,4.225l0.559,4.225l0.559-16.899l0.505,21.124l0.558,16.899l0.541-12.674l0.559-16.899
			l0.541-8.449l0.559,21.124l0.559,12.674l0.541,8.449l0.559-8.449l0.542-12.674l0.559-4.225l0.559,21.124l0.505-16.899
			l0.558-21.124l0.541-4.225h0.559l0.541,4.225l0.559,12.674h0.559h0.541l0.559,16.899l0.542,21.124l0.559,38.022l0.559-4.225
			l0.505,4.225l0.558,4.225l0.541-8.449l0.559-4.225l0.541-4.225h0.559l0.559,8.449l0.541-8.449l0.559-12.674l0.542-8.449
			l0.559-29.573l0.559,16.899l0.523,4.225l0.558-8.449l0.541,4.225h0.559l0.541,8.449l0.559-12.674l0.559-16.899l0.541-4.225
			l0.559-4.225l0.542-16.899l0.559-16.899l0.559-8.449l0.505,12.674l0.558,8.449l0.541,12.674l0.559,12.674l0.541-4.225l0.559-8.449
			l0.559-12.674l0.541,8.449l0.559-8.449l0.542,4.225h0.559l0.559-4.225l0.505-8.449l0.558-4.225l0.541-12.674l0.559-4.225h0.541
			l0.559,8.449l0.559,16.899l0.541-8.449l0.559,12.674l0.542,12.674l0.559,12.674l0.559,4.225l0.505-16.899l0.558-4.225l0.541,8.449
			l0.559,8.449l0.541-8.449l0.559,4.225h0.559l0.541-4.225l0.559-12.674l0.542-8.449l0.559-8.449l0.559,8.449l0.523,33.798
			l0.558,50.696l0.541,8.449"/>
	</g>
	<g id="red-line-d_00000030479210021791128850000015781492190185854891_">
		
			<path id="red-line-d-desktop_00000132791053391844901360000000137254826460852098_" fill="none" stroke="#D62728" stroke-width="3" stroke-linecap="round" stroke-linejoin="round" d="
			M693.131,326.706l1.464-17.141l1.417-13.713l1.464-10.285l1.464-3.428l1.417,6.856h1.464l1.419-6.856h1.464l1.464-10.285
			l1.322-30.854"/>
		
			<path id="red-line-d-mobile_00000061455527486110145370000004291660728187292344_" fill="none" stroke="#D62728" stroke-width="3" stroke-linecap="round" stroke-linejoin="round" d="
			M1113.809,393.831l0.559-21.124l0.541-16.899l0.559-12.674l0.559-4.225l0.541,8.449h0.559l0.542-8.449h0.559l0.559-12.674
			l0.505-38.022"/>
	</g>
	<g id="red-line-e_00000121973675740385084820000004043084832505119913_">
		
			<path id="red-line-e-desktop_00000080167754369566105880000001435500774531003567_" fill="none" stroke="#D62728" stroke-width="3" stroke-linecap="round" stroke-linejoin="round" d="
			M707.491,241.001l1.462-54.851l1.417-27.426l1.464-13.713h1.417l1.464,3.428l1.464-3.428l1.417-27.426l1.464-20.569l1.419-6.856
			l1.464-17.141l1.464-13.713l1.322-20.569"/>
		
			<path id="red-line-e-mobile_00000149382066016748806380000008317332098168153217_" fill="none" stroke="#D62728" stroke-width="3" stroke-linecap="round" stroke-linejoin="round" d="
			M1119.29,288.214l0.558-67.595l0.541-33.798l0.559-16.899h0.541l0.559,4.225l0.559-4.225l0.541-33.798l0.559-25.348l0.542-8.449
			l0.559-21.123l0.559-16.899l0.505-25.348"/>
	</g>
	<g id="arrow_00000070116944621816216690000016896097237520625550_">
		<g>
			<path fill="none" stroke="#464646" d="M384.709,294.465c2.484,18.617-23.647,10.498-23.647,10.498"/>
			<g>
				<polygon fill="#464646" points="380.858,298.138 381.648,298.752 384.67,294.855 388.335,298.154 389.004,297.409 
					384.539,293.393 				"/>
			</g>
		</g>
		<g>
			<path fill="none" stroke="#464646" d="M995.53,355.241c2.484,18.617-23.647,10.498-23.647,10.498"/>
			<g>
				<polygon fill="#464646" points="991.678,358.914 992.469,359.528 995.49,355.632 999.156,358.93 999.825,358.186 
					995.359,354.169 				"/>
			</g>
		</g>
	</g>
</g>
<style>
#g-inflation-desktop-desktop-interactive-img rect, #g-inflation-desktop-desktop-interactive-img circle, #g-inflation-desktop-desktop-interactive-img path, #g-inflation-desktop-desktop-interactive-img line, #g-inflation-desktop-desktop-interactive-img polyline, #g-inflation-desktop-desktop-interactive-img polygon { vector-effect: non-scaling-stroke; }
</style>
</svg>

