<?xml version="1.0" encoding="utf-8"?>
<!-- Generator: Adobe Illustrator 24.0.3, SVG Export Plug-In . SVG Version: 6.00 Build 0)  -->
<svg version="1.1" id="Layer_1" xmlns="http://www.w3.org/2000/svg" xmlns:xlink="http://www.w3.org/1999/xlink" x="0px" y="0px"
	 viewBox="0 0 800 660.3" style="enable-background:new 0 0 800 660.3;" xml:space="preserve">
<style type="text/css">
	.st0{fill:none;}
	.st1{fill:#E9B83B;}
	.st2{fill:#464646;}
	.st3{font-family:'Roboto-Bold';}
	.st4{font-size:14px;}
	.st5{font-size:16px;}
	.st6{fill:#0397CC;}
	.st7{fill:#FFFFFF;}
	.st8{font-size:13px;}
	.st9{font-size:9px;}
	.st10{font-size:11px;}
	.st11{enable-background:new    ;}
	.st12{font-family:'Roboto-BoldCondensed';}
	.st13{font-size:30px;}
	.st14{font-family:'Roboto-Regular';}
	.st15{font-size:18px;}
	.st16{fill:none;stroke:#464646;}
	.st17{fill:#F2F2F2;}
	.st18{fill:#666666;}
	.st19{font-family:'Roboto-Medium';}
	.st20{font-size:16.5443px;}
</style>
<path class="st0" d="z"/>
<path id="p_882.9785469416205" class="st1" d="M345.5,578.2c-134.9,0-244.2-109.4-244.2-244.2S210.6,89.7,345.5,89.7
	S589.7,199.1,589.7,334S480.4,578.2,345.5,578.2z"/>
<text transform="matrix(1 0 0 1 296.0131 322.8877)" class="st2 st3 st4">Administrative support</text>
<text transform="matrix(0.583 0 0 0.583 440.3676 318.2256)" class="st2 st3 st4">*</text>
<text transform="matrix(1 0 0 1 331.5742 341.8503)" class="st2 st3 st5">72,883</text>
<path id="p_972.5051457975987" class="st6" d="M635,378.2c-24.4,0-44.3-19.8-44.3-44.3c0-24.4,19.8-44.3,44.3-44.3c0,0,0,0,0,0
	c24.4,0,44.3,19.8,44.3,44.3C679.3,358.4,659.4,378.2,635,378.2C635,378.2,635,378.2,635,378.2z"/>
<text transform="matrix(1 0 0 1 591.828 333.6512)" class="st7 st3 st8">Manufacturing</text>
<text transform="matrix(1 0 0 1 615.9888 351.6859)" class="st7 st3 st5">2,394</text>
<path id="p_1014.2999346571539" class="st6" d="M613.2,441.8c-18.1,0-32.8-14.7-32.8-32.8c0-18.1,14.7-32.8,32.8-32.8c0,0,0,0,0,0
	c18.1,0,32.8,14.7,32.8,32.8C646.1,427.1,631.4,441.8,613.2,441.8C613.2,441.8,613.2,441.8,613.2,441.8z"/>
<path id="p_863.608555735511" class="st6" d="M612.1,292.2c-17.2,0-31.2-14-31.2-31.2s14-31.2,31.2-31.2c0,0,0,0,0,0
	c17.2,0,31.2,14,31.2,31.2C643.3,278.3,629.3,292.2,612.1,292.2C612.1,292.2,612.1,292.2,612.1,292.2z"/>
<path id="p_780.5599724845745" class="st6" d="M586.8,234.4c-15.2,0-27.5-12.3-27.5-27.5c0-15.2,12.3-27.5,27.5-27.5c0,0,0,0,0,0
	c15.2,0,27.5,12.3,27.5,27.5C614.4,222.1,602,234.4,586.8,234.4C586.8,234.4,586.8,234.4,586.8,234.4z"/>
<path id="p_1034.596010077632" class="st6" d="M585.2,490.1c-14.9,0-27.1-12.1-27.1-27c0-14.9,12.1-27.1,27-27.1c0,0,0,0,0,0
	c14.9,0,27.1,12.1,27.1,27C612.3,478,600.2,490.1,585.2,490.1C585.3,490.1,585.2,490.1,585.2,490.1z"/>
<text transform="matrix(1 0 0 1 559.1782 460.928)" class="st7 st3 st9">Construction</text>
<text transform="matrix(1 0 0 1 576.9047 472.928)" class="st7 st3 st10">894</text>
<path id="p_703.1357777569945" class="st6" d="M555.5,188.4c-14.3,0-25.8-11.6-25.8-25.8s11.6-25.8,25.8-25.8s25.8,11.6,25.8,25.8
	S569.7,188.4,555.5,188.4z"/>
<path id="p_1036.9700408608608" class="st6" d="M553.5,524.2c-12.2,0-22.2-9.9-22.2-22.2s9.9-22.2,22.2-22.2c0,0,0,0,0,0
	c12.2,0,22.2,9.9,22.2,22.2C575.7,514.2,565.8,524.2,553.5,524.2C553.5,524.2,553.5,524.2,553.5,524.2z"/>
<path id="p_630.3866580549609" class="st6" d="M518.7,152.4c-12.2,0-22.1-9.9-22.1-22.1c0-12.2,9.9-22.1,22.1-22.1c0,0,0,0,0,0
	c12.2,0,22.1,9.9,22.1,22.1C540.8,142.5,530.9,152.4,518.7,152.4C518.7,152.4,518.7,152.4,518.7,152.4z"/>
<path id="p_1025.540433808645" class="st6" d="M522.5,543.7c-9.2,0-16.7-7.5-16.7-16.7c0-9.2,7.5-16.7,16.7-16.7c0,0,0,0,0,0
	c9.2,0,16.7,7.5,16.7,16.7C539.2,536.3,531.8,543.7,522.5,543.7C522.5,543.7,522.5,543.7,522.5,543.7z"/>
<path id="p_571.1029790355686" class="st6" d="M483.6,128.2c-9.1,0-16.6-7.4-16.6-16.6s7.4-16.6,16.6-16.6c0,0,0,0,0,0
	c9.1,0,16.6,7.4,16.6,16.6S492.8,128.2,483.6,128.2C483.7,128.2,483.7,128.2,483.6,128.2z"/>
<path id="p_1018.3449785878457" class="st6" d="M495.9,563.2c-8.7,0-15.8-7.1-15.8-15.8c0-8.7,7.1-15.8,15.8-15.8
	c8.7,0,15.8,7.1,15.8,15.8C511.7,556.1,504.6,563.2,495.9,563.2z"/>
<path id="p_527.4506995027652" class="st6" d="M455.1,113.1c-7.4,0-13.4-6-13.4-13.4c0-7.4,6-13.4,13.4-13.4c0,0,0,0,0,0
	c7.4,0,13.4,6,13.4,13.4C468.5,107.1,462.5,113.1,455.1,113.1C455.1,113.1,455.1,113.1,455.1,113.1z"/>
<path id="p_994.4317690201736" class="st6" d="M471.2,564c-5,0-9-4-9-9s4-9,9-9c5,0,9,4,9,9S476.2,564,471.2,564z"/>
<path id="p_496.2208527972066" class="st6" d="M432.7,104.2c-4.6,0-8.2-3.7-8.2-8.2s3.7-8.2,8.2-8.2c4.6,0,8.2,3.7,8.2,8.2
	S437.3,104.2,432.7,104.2z"/>
<path id="p_984.2724657473271" class="st6" d="M454.9,570.1c-4.4,0-7.9-3.5-7.9-7.9c0-4.4,3.5-7.9,7.9-7.9c4.4,0,7.9,3.5,7.9,7.9
	C462.7,566.6,459.2,570.1,454.9,570.1z"/>
<path id="p_807.5942976504198" class="st6" d="M417.4,98.8c-5,0-8.8-5.2-6.2-10.6c1.1-2.2,3.4-3.6,5.9-3.6h3.7
	C427.9,90.9,423.6,98.8,417.4,98.8C417.4,98.8,417.4,98.8,417.4,98.8z"/>
<path id="p_973.9172777040282" class="st6" d="M440.1,574.6c-3.8,0-6.9-3.1-6.9-6.9c0-3.8,3.1-6.9,6.9-6.9c0,0,0,0,0,0
	c3.8,0,6.9,3.1,6.9,6.9C446.9,571.5,443.9,574.6,440.1,574.6C440.1,574.6,440.1,574.6,440.1,574.6z"/>
<path id="p_1018.4506079748348" class="st6" d="M429,571c-1.6,0-2.9-1.3-2.9-2.9c0-1.6,1.3-2.9,2.9-2.9c0,0,0,0,0,0
	c1.6,0,2.9,1.3,2.9,2.9C431.9,569.7,430.6,571,429,571C429,571,429,571,429,571z"/>
<path class="st0" d="z"/>
<text transform="matrix(1 0 0 1 644.7255 201.164)" class="st11"><tspan x="0" y="0" class="st2 st3 st4">Wholesale</tspan><tspan x="0" y="16.8" class="st2 st3 st4">&amp; retail</tspan></text>
<text transform="matrix(1 0 0 1 644.7256 235.1494)" class="st2 st3 st5">1,189</text>
<text transform="matrix(1 0 0 1 499.8887 127.528)" class="st7 st3 st10">Finance</text>
<text transform="matrix(1 0 0 1 507.7317 140.6625)" class="st7 st3 st8">599</text>
<text transform="matrix(1 0 0 1 536.406 161.4249)" class="st7 st3 st10">Utilities</text>
<text transform="matrix(1 0 0 1 544.249 174.5594)" class="st7 st3 st8">814</text>
<text transform="matrix(1 0 0 1 646.0591 435.9712)" class="st11"><tspan x="0" y="0" class="st2 st3 st4">Information</tspan><tspan x="0" y="16.8" class="st2 st3 st4">&amp; communication</tspan></text>
<text transform="matrix(1 0 0 1 659.9698 472.9276)" class="st2 st3 st5">1,316</text>
<text transform="matrix(1 0 0 1 9.4157 40.1216)" class="st2 st12 st13">Despite some closures, POGOs still drive foreign employment </text>
<text transform="matrix(1 0 0 1 9.4157 71.846)" class="st2 st14 st15">Alien employment permits issued by sector (as of September)</text>
<text transform="matrix(1 0 0 1 1.5847 615.2724)" class="st2 st14 st4">Source: Department of Labor and Employment</text>
<text transform="matrix(1 0 0 1 1.5847 601.9214)" class="st2 st14 st4">*- includes jobs connected to POGO operations.</text>
<path class="st16" d="M642.9,255.7"/>
<path class="st16" d="M670.8,255.7"/>
<path class="st16" d="M670.8,256"/>
<path class="st16" d="M670.8,237.1"/>
<path class="st16" d="M643.3,258.7l18.6,0v-16.4"/>
<path class="st16" d="M646.1,406.7l18.6,0v15.5"/>
<g>
	<rect x="1.6" y="621.8" class="st17" width="798.4" height="38.5"/>
	
		<image style="overflow:visible;enable-background:new    ;" width="3537" height="1482" xlink:href="Philstar-Logo.png"  transform="matrix(1.613578e-02 0 0 1.986195e-02 683.5958 625.3234)">
	</image>
	<g>
		<g>
			<g>
				<path class="st6" d="M86,640.6c0,6.3-4.2,11.2-9.1,11.2c-5.1,0-9.1-5-9.1-11.2c0-6.3,4.2-11.2,9.1-11.2
					C82,629.3,86,634.5,86,640.6"/>
				<path class="st7" d="M79.4,643.4h-2c-1.4,0-1.6-0.7-1.6-1.4c0-0.4,0-0.8,0.1-1.5h3.2c0.5,0,1.5-0.3,1.5-1.4s-0.5-1.8-1-1.8H76
					c0-1.5-0.1-3.1-1.3-3.1c-0.5,0-0.9,0.3-1.1,0.9c-0.3,0.8-0.3,1.8-0.3,2.7c0,0.2,0,0.4,0,0.5c0,0.5,0,1.2,0,1.7
					c0,0.6,0,1.3,0,1.9c0,3.4,2.6,4.4,3.2,4.4c0.5,0,2.6,0.1,2.8,0.1s1.4-0.1,1.4-1.4C80.6,643.9,79.9,643.4,79.4,643.4"/>
			</g>
			<g>
				<path class="st6" d="M109.6,640.6c0,6.3-4.2,11.2-9.1,11.2c-5,0-9.1-5-9.1-11.2c0-6.3,4.2-11.2,9.1-11.2
					C105.5,629.4,109.6,634.5,109.6,640.6"/>
			</g>
			<g>
				<path class="st6" d="M53,652.2c-5.1,0-9.1-5-9.1-11.2c0-6.3,4.2-11.2,9.1-11.2c5.1,0,9.1,5,9.1,11.2"/>
				<path class="st6" d="M62.1,641c0,6.3-4.2,11.2-9.1,11.2"/>
				<path class="st7" d="M51.4,648.5V641h-1v-2.2h1v-0.5c0-1.2,0.3-2.4,1-3.2c0.6-0.7,1.5-1,2.1-1c0.5,0,0.9,0.1,1.2,0.2l-0.1,2.3
					c-0.3-0.1-0.5-0.2-0.8-0.2c-0.8,0-1.1,0.7-1.1,1.7v0.5h1.5v2.3h-1.5v7.5L51.4,648.5L51.4,648.5z"/>
			</g>
		</g>
		<text transform="matrix(0.8124 0 0 1 118.3965 645.5889)" class="st18 st19 st20">/philstarnews</text>
		<g>
			<path class="st7" d="M106.1,641.2c-0.1,1.2-0.1,2.3-0.3,3.4c-0.3,1.6-1.2,2.7-2.6,2.8c-1.7,0.1-3.4,0.1-5.1,0
				c-1.5-0.1-2.6-1.5-2.7-3.4c-0.1-2.1-0.1-4.2,0-6.3c0.1-1.9,1.2-3.3,2.7-3.4c1.6-0.1,3.3-0.1,5,0c1.6,0.1,2.7,1.4,2.8,3.4
				C106.1,639,106,640.1,106.1,641.2C106,641.2,106,641.2,106.1,641.2z M100.6,646.3C100.6,646.3,100.6,646.2,100.6,646.3
				c0.4-0.1,0.8-0.1,1.2-0.1s0.8,0,1.2-0.1c1.1-0.1,1.9-1,2-2.3c0.1-2,0.1-4,0-5.9c0-1.4-0.8-2.3-1.9-2.3c-1.5-0.1-3.2-0.1-4.8,0
				c-1.1,0-1.9,0.9-1.9,2.3c-0.1,2.1-0.1,4.1,0,6.1c0,1.2,0.6,2,1.5,2.3C98.7,646.2,99.6,646.2,100.6,646.3z"/>
			<path class="st7" d="M100.6,644.3c-1.5,0-2.7-1.5-2.7-3.4c0-1.8,1.2-3.4,2.8-3.4c1.5,0,2.7,1.5,2.7,3.4
				C103.4,642.7,102,644.3,100.6,644.3z M102.4,640.8c0-1.3-0.7-2.3-1.7-2.3c-1,0-1.7,0.9-1.8,2.2c0,1.3,0.7,2.3,1.7,2.3
				S102.4,642.1,102.4,640.8z"/>
			<path class="st7" d="M103.4,636.5c0.4,0,0.6,0.4,0.6,0.7c0,0.5-0.3,0.8-0.6,0.8c-0.4,0-0.6-0.4-0.6-0.7
				C102.8,636.9,103.1,636.5,103.4,636.5z"/>
		</g>
	</g>
</g>
</svg>
