<?xml version="1.0" encoding="utf-8"?>
<!-- Generator: Adobe Illustrator 26.3.1, SVG Export Plug-In . SVG Version: 6.00 Build 0)  -->
<svg version="1.2" baseProfile="tiny" id="g-inflation-desktop-interactive-img" xmlns="http://www.w3.org/2000/svg" xmlns:xlink="http://www.w3.org/1999/xlink"
	 x="0px" y="0px" viewBox="0 0 800 578.316" overflow="visible" xml:space="preserve">
<g>
	
		<path id="rate-5_00000119814195942740917180000016570566063082201262_" fill="none" stroke="#1F77B4" stroke-width="3" stroke-linecap="round" stroke-linejoin="round" d="
		M523.898,410.607h13.212h13.633h13.633h12.314h13.615h13.193h13.633h13.193h13.633h13.633h13.193h13.633h13.212h13.633h13.633
		h12.314h13.615"/>
	
		<path id="rate-4_00000059994725280364622110000000578706268246649497_" fill="none" stroke="#1F77B4" stroke-width="3" stroke-linecap="round" stroke-linejoin="round" d="
		M416.171,337.528l13.615,29.232h13.193l13.633,29.232h13.193h13.633h13.633h13.193l13.633,14.616"/>
	
		<path id="rate-3_00000021802970496600491660000012153236428193534865_" fill="none" stroke="#1F77B4" stroke-width="3" stroke-linecap="round" stroke-linejoin="round" d="
		M336.113,293.68h13.193h13.633h13.212h13.633l13.633,14.616l12.754,29.232"/>
	
		<path id="rate-2_00000078039863521045066740000012968379312099091631_" fill="none" stroke="#1F77B4" stroke-width="3" stroke-linecap="round" stroke-linejoin="round" d="
		M135.135,322.912h13.193l13.633-29.232l13.633-29.232h13.193l13.633-14.616h13.212h13.633h13.633h12.314h13.615l13.193,14.616
		h13.633h13.193l13.633,14.616l13.633,14.616"/>
	
		<path id="rate-1_00000029010075094971732210000006234363323259473546_" fill="none" stroke="#1F77B4" stroke-width="3" stroke-linecap="round" stroke-linejoin="round" d="
		M68.747,352.144H82.38h12.314h13.615l13.193-14.616l13.633-14.616"/>
	
		<path id="inflation-6_00000142872620146637955250000004633799741846416531_" fill="none" stroke="#D62728" stroke-width="3" stroke-linecap="round" stroke-linejoin="round" d="
		M724.895,352.144l12.314-58.463l13.615-52.617"/>
	
		<path id="inflation-5_00000133528964100117721970000011937590399162851200_" fill="none" stroke="#D62728" stroke-width="3" stroke-linecap="round" stroke-linejoin="round" d="
		M564.376,281.988l12.314,5.846h13.615h13.193l13.633,23.385h13.193l13.633-40.924l13.633,11.693l13.193,11.693l13.633,17.539
		l13.212,35.078l13.633,5.846h13.633"/>
	
		<path id="inflation-4_00000164476414829305291320000013186951119956103588_" fill="none" stroke="#D62728" stroke-width="3" stroke-linecap="round" stroke-linejoin="round" d="
		M442.979,433.992l13.633-40.924l13.193-5.846l13.633,11.693h13.633l13.193-5.846l13.633-40.924l13.212-17.539l13.633-23.385
		l13.633-29.232"/>
	
		<path id="inflation-3_00000140692961490389621080000007744263703140594060_" fill="none" stroke="#D62728" stroke-width="3" stroke-linecap="round" stroke-linejoin="round" d="
		M336.113,498.301l13.193-5.846l13.633-35.078l13.212-70.156l13.633-35.078l13.633,29.232l12.754,17.539l13.615,23.385
		l13.193,11.693"/>
	
		<path id="inflation-2_00000100341950416699143290000006543595924015654071_" fill="none" stroke="#D62728" stroke-width="3" stroke-linecap="round" stroke-linejoin="round" d="
		M175.595,124.138h13.193l13.633,46.77l13.212,58.463l13.633,40.924l13.633,35.078l12.314,23.385l13.615,11.693h13.193
		l13.633,29.232l13.193,29.232l13.633,46.77l13.633,52.617"/>
	
		<path id="inflation-1_00000086661556301706002690000005279393955823776684_" fill="none" stroke="#D62728" stroke-width="3" stroke-linecap="round" stroke-linejoin="round" d="
		M68.747,328.758l13.633-17.539l12.314-35.078h13.615l13.193-17.539l13.633-23.385l13.193-46.77l13.633-46.77l13.633-17.539"/>
	<g id="arrow-1_00000093159593301668386030000018103097013556770469_">
		<path fill="none" stroke="#464646" d="M170.377,95.548c-2.526,11.26-0.376,20.733,5.636,25.201"/>
		<g>
			<polygon fill="#464646" points="170.91,121.657 170.86,120.658 175.784,120.415 175.182,115.52 176.176,115.399 176.908,121.36 
							"/>
		</g>
	</g>
	<g id="arrow-4_00000137125135797799071370000007237712595213518495_">
		<path fill="none" stroke="#464646" d="M442.105,439.609c-8.476,5.324-8.577,16.377-0.161,29.3"/>
		<g>
			<polygon fill="#464646" points="437.091,438.248 436.954,439.239 441.84,439.906 440.817,444.731 441.797,444.937 
				443.041,439.062 			"/>
		</g>
	</g>
	<g id="arrow-5_00000065060681880216425080000004336500152668197778_">
		<path fill="none" stroke="#464646" d="M718.687,200.82c-7.806,15.823,2.564,30.779,27.217,39.389"/>
		<g>
			<polygon fill="#464646" points="741.397,242.891 741.008,241.969 745.553,240.058 743.315,235.664 744.207,235.21 
				746.932,240.562 			"/>
		</g>
	</g>
	<g id="arrow-2_00000081619483149563398770000007708638437955183501_">
		<path fill="none" stroke="#464646" d="M136.426,329.569c-4.321,12.824-2.541,23.385,4.756,27.85"/>
		<g>
			<polygon fill="#464646" points="131.586,331.552 132.087,332.419 136.353,329.946 138.508,334.381 139.408,333.943 
				136.782,328.541 			"/>
		</g>
	</g>
	<g id="arrow-3_00000016041900737244041270000013406083743877348775_">
		<path fill="none" stroke="#464646" d="M418.383,334.155c29.055-4.14,44.027-21.054,39.322-44.555"/>
		<g>
			<polygon fill="#464646" points="422.304,337.633 422.86,336.801 418.757,334.067 421.783,330.174 420.993,329.56 
				417.307,334.302 			"/>
		</g>
	</g>
</g>
<style>
#g-inflation-desktop-interactive-img rect, #g-inflation-desktop-interactive-img circle, #g-inflation-desktop-interactive-img path, #g-inflation-desktop-interactive-img line, #g-inflation-desktop-interactive-img polyline, #g-inflation-desktop-interactive-img polygon { vector-effect: non-scaling-stroke; }
</style>
</svg>

