<?xml version="1.0" encoding="utf-8"?>
<!-- Generator: Adobe Illustrator 26.3.1, SVG Export Plug-In . SVG Version: 6.00 Build 0)  -->
<svg version="1.1" id="Layer_1" xmlns="http://www.w3.org/2000/svg" xmlns:xlink="http://www.w3.org/1999/xlink" x="0px" y="0px"
	 viewBox="0 0 800 578.3" style="enable-background:new 0 0 800 578.3;" xml:space="preserve">
<style type="text/css">
	.st0{opacity:0.7;}
	.st1{fill:none;stroke:#000000;}
	.st2{fill:none;stroke:#000000;stroke-dasharray:6.985,6.985;}
	.st3{fill:#464646;}
	.st4{font-family:'Roboto-Regular';}
	.st5{font-size:14px;}
	.st6{fill:none;stroke:#D9D9D9;stroke-opacity:0.7;}
	.st7{opacity:0.8;fill:#0397CC;fill-opacity:0.2;}
	.st8{fill:none;stroke:#D62728;stroke-width:3;stroke-linecap:round;stroke-linejoin:round;}
	.st9{fill:none;stroke:#1F77B4;stroke-width:3;stroke-linecap:round;stroke-linejoin:round;}
	.st10{fill:none;stroke:#464646;stroke-linecap:round;stroke-linejoin:round;}
	.st11{fill:none;stroke:#464646;}
	.st12{enable-background:new    ;}
	.st13{font-family:'Roboto-Bold';}
</style>
<g id="chart-group-2-axis-0-grid-0">
	<g class="st0">
		<line class="st1" x1="39.6" y1="410.6" x2="43.1" y2="410.6"/>
		<line class="st2" x1="50.1" y1="410.6" x2="773" y2="410.6"/>
		<line class="st1" x1="776.5" y1="410.6" x2="780" y2="410.6"/>
	</g>
</g>
<text transform="matrix(1 0 0 1 26.9229 415.5766)" class="st3 st4 st5">2</text>
<g id="chart-group-2-axis-0-grid-1">
	<g class="st0">
		<line class="st1" x1="39.6" y1="293.7" x2="43.1" y2="293.7"/>
		<line class="st2" x1="50.1" y1="293.7" x2="773" y2="293.7"/>
		<line class="st1" x1="776.5" y1="293.7" x2="780" y2="293.7"/>
	</g>
</g>
<text transform="matrix(1 0 0 1 26.9229 298.6505)" class="st3 st4 st5">4</text>
<line id="chart-group-2-axis-0-grid-2" class="st6" x1="39.6" y1="176.8" x2="780" y2="176.8"/>
<text transform="matrix(1 0 0 1 26.9229 181.7243)" class="st3 st4 st5">6</text>
<line id="chart-group-2-axis-0-grid-3" class="st6" x1="39.6" y1="59.8" x2="780" y2="59.8"/>
<text transform="matrix(1 0 0 1 26.9229 64.7982)" class="st3 st4 st5">8</text>
<polygon class="st7" points="224.3,22.6 224.3,527.1 347.6,527.1 347.6,22.6 "/>
<polygon class="st7" points="471.5,22.6 471.5,527.1 760.3,527.1 760.3,22.6 "/>
<path shape-rendering="auto" class="st8" d="M68.7,328.8l13.6-17.5l12.3-35.1h13.6l13.2-17.5l13.6-23.4l13.2-46.8l13.6-46.8
	l13.6-17.5h13.2l13.6,46.8l13.2,58.5l13.6,40.9l13.6,35.1l12.3,23.4l13.6,11.7H282l13.6,29.2l13.2,29.2l13.6,46.8l13.6,52.6
	l13.2-5.8l13.6-35.1l13.2-70.2l13.6-35.1l13.6,29.2l12.8,17.5l13.6,23.4L443,434l13.6-40.9l13.2-5.8l13.6,11.7h13.6l13.2-5.8
	l13.6-40.9l13.2-17.5l13.6-23.4l13.6-29.2l12.3,5.8h13.6h13.2l13.6,23.4h13.2l13.6-40.9l13.6,11.7l13.2,11.7l13.6,17.5l13.2,35.1
	l13.6,5.8h13.6l12.3-58.5l13.6-52.6"/>
<path shape-rendering="auto" class="st9" d="M68.7,352.1h13.6h12.3h13.6l13.2-14.6l13.6-14.6h13.2l13.6-29.2l13.6-29.2h13.2
	l13.6-14.6h13.2h13.6h13.6h12.3h13.6l13.2,14.6h13.6h13.2l13.6,14.6l13.6,14.6h13.2h13.6h13.2h13.6l13.6,14.6l12.8,29.2l13.6,29.2
	H443l13.6,29.2h13.2h13.6h13.6h13.2l13.6,14.6h13.2h13.6h13.6h12.3h13.6h13.2h13.6h13.2H644h13.6h13.2h13.6h13.2h13.6h13.6h12.3
	h13.6"/>
<path vector-effect="non-scaling-stroke" shape-rendering="auto" class="st10" d="M49.6,527.5H770"/>
<line id="chart-group-6-axis-0-ticks-0" class="st11" x1="68.7" y1="527.1" x2="68.7" y2="537.1"/>
<text transform="matrix(1 0 0 1 54.5766 554.1745)" class="st3 st4 st5">2018</text>
<line id="chart-group-6-axis-0-ticks-12" class="st11" x1="229.3" y1="527.1" x2="229.3" y2="537.1"/>
<text transform="matrix(1 0 0 1 213.5591 554.0346)" class="st3 st4 st5">2019</text>
<line id="chart-group-6-axis-0-ticks-24" class="st11" x1="389.8" y1="527.1" x2="389.8" y2="537.1"/>
<text transform="matrix(1 0 0 1 373.3095 554.0349)" class="st3 st4 st5">2020</text>
<line id="chart-group-6-axis-0-ticks-36" class="st11" x1="550.7" y1="527.1" x2="550.7" y2="537.1"/>
<text transform="matrix(1 0 0 1 534.7382 554.1747)" class="st3 st4 st5">2021</text>
<line id="chart-group-6-axis-0-ticks-48" class="st11" x1="711.3" y1="527.1" x2="711.3" y2="537.1"/>
<text transform="matrix(1 0 0 1 694.8186 554.3146)" class="st3 st4 st5">2022</text>
<g>
	<g>
		<path class="st11" d="M170.4,95.5c-2.5,11.3-0.4,20.7,5.6,25.2"/>
		<g>
			<polygon class="st3" points="170.9,121.7 170.9,120.7 175.8,120.4 175.2,115.5 176.2,115.4 176.9,121.4 			"/>
		</g>
	</g>
</g>
<text transform="matrix(1 0 0 1 81.8905 56.6634)" class="st12"><tspan x="0" y="0" class="st3 st4 st5">Inflation peaks</tspan><tspan x="6.4" y="16.8" class="st3 st4 st5">as rice supply</tspan><tspan x="41.3" y="33.6" class="st3 st4 st5">tightens</tspan></text>
<g>
	<g>
		<path class="st11" d="M442.1,439.6c-8.5,5.3-8.6,16.4-0.2,29.3"/>
		<g>
			<polygon class="st3" points="437.1,438.2 437,439.2 441.8,439.9 440.8,444.7 441.8,444.9 443,439.1 			"/>
		</g>
	</g>
</g>
<text transform="matrix(1 0 0 1 409.6498 483.993)" class="st12"><tspan x="0" y="0" class="st3 st4 st5">Inflation</tspan><tspan x="11.3" y="16.8" class="st3 st4 st5">tamed</tspan><tspan x="-35.4" y="33.6" class="st3 st4 st5">by shutdowns</tspan></text>
<g>
	<g>
		<path class="st11" d="M706.3,251.3c-7.8,15.8,2.6,30.8,27.2,39.4"/>
		<g>
			<polygon class="st3" points="729,293.3 728.6,292.4 733.1,290.5 730.9,286.1 731.8,285.7 734.5,291 			"/>
		</g>
	</g>
</g>
<text transform="matrix(1 0 0 1 587.9139 229.7262)" class="st12"><tspan x="0" y="0" class="st3 st4 st5">Inflation breaches target</tspan><tspan x="39.2" y="16.8" class="st3 st4 st5">as oil prices surge</tspan></text>
<g>
	<g>
		<path class="st11" d="M136.4,329.6c-4.3,12.8-2.5,23.4,4.8,27.8"/>
		<g>
			<polygon class="st3" points="131.6,331.6 132.1,332.4 136.4,329.9 138.5,334.4 139.4,333.9 136.8,328.5 			"/>
		</g>
	</g>
</g>
<text transform="matrix(1 0 0 1 130.083 372.3593)" class="st12"><tspan x="0" y="0" class="st3 st4 st5">BSP begins</tspan><tspan x="-6.2" y="16.8" class="st3 st4 st5">raising rates</tspan><tspan x="-61.1" y="33.6" class="st3 st4 st5">after breach of target</tspan></text>
<g>
	<g>
		<path class="st11" d="M418.4,334.2c29.1-4.1,44-21.1,39.3-44.6"/>
		<g>
			<polygon class="st3" points="422.3,337.6 422.9,336.8 418.8,334.1 421.8,330.2 421,329.6 417.3,334.3 			"/>
		</g>
	</g>
</g>
<text transform="matrix(1 0 0 1 377.7448 252.2672)" class="st12"><tspan x="0" y="0" class="st3 st4 st5">Rates slashed</tspan><tspan x="20.5" y="16.8" class="st3 st4 st5">to respond</tspan><tspan x="9.9" y="33.6" class="st3 st4 st5">to pandemic</tspan></text>
<text transform="matrix(1 0 0 1 233.0116 35.8455)" class="st12"><tspan x="0" y="0" class="st3 st13 st5">Low base effects </tspan><tspan x="26.3" y="16.8" class="st3 st13 st5">take hold</tspan></text>
<text transform="matrix(1 0 0 1 537.9271 35.9853)" class="st3 st13 st5">Economy slowly reopens</text>
<text transform="matrix(1 0 0 1 27.5586 532.0649)" class="st3 st4 st5">0</text>
</svg>
