<?xml version="1.0" encoding="utf-8"?>
<!-- Generator: Adobe Illustrator 26.2.1, SVG Export Plug-In . SVG Version: 6.00 Build 0)  -->
<svg version="1.2" baseProfile="tiny" id="g-saln-web-interactions-img" xmlns="http://www.w3.org/2000/svg" xmlns:xlink="http://www.w3.org/1999/xlink"
	 x="0px" y="0px" viewBox="0 0 800 565.284" overflow="visible" xml:space="preserve">
<g>
	<g id="arrows-2021_00000106846037980523515100000011825817132880200618_">
		<g id="arrow-2-desktop_00000068646155132286966140000007760320526929743744_">
			<path fill="none" stroke="#464646" d="M694.163,420.674c-5.161-4.198-32.009-27.124-24.722-44.131"/>
			<g>
				<polygon fill="#464646" points="694.305,415.384 693.311,415.5 693.889,420.397 688.962,420.615 689.008,421.615 
					695.008,421.348 				"/>
			</g>
		</g>
		<g id="arrow-2-mobile_00000078751812601454532120000016910823113786766471_">
			<path fill="none" stroke="#464646" d="M1112.262,474.481c-2.877-4.9-15.064-27.999,4.813-37.256"/>
			<g>
				<polygon fill="#464646" points="1114.258,469.571 1113.286,469.332 1112.111,474.12 1107.42,472.597 1107.112,473.549 
					1112.825,475.403 				"/>
			</g>
		</g>
	</g>
	<g id="arrows-2018_00000149342228940204619210000004138138049660095384_">
		<g id="arrow-1-desktop_00000101789569676821284080000013702065528581886381_">
			<path fill="none" stroke="#464646" d="M271.81,94.764c-2.297-32.82,51.847-15.332,51.847-15.332"/>
			<g>
				<polygon fill="#464646" points="275.832,91.302 275.076,90.647 271.852,94.378 268.366,90.889 267.659,91.597 271.905,95.845 
									"/>
			</g>
		</g>
		<g id="arrow-1-mobile_00000101804941409382385900000012947207267393128848_">
			<path fill="none" stroke="#464646" d="M950.334,72.847c19.332-28.995,27.768,14.928,27.768,14.928"/>
			<g>
				<polygon fill="#464646" points="955.606,72.468 955.392,71.49 950.577,72.549 949.872,67.668 948.882,67.812 949.741,73.756 
									"/>
			</g>
		</g>
	</g>
	<g id="_x32_021-overall_00000134230750688835285850000012568956587477606024_">
		<path id="_x32_021-overall-desktop_00000096781530237271040820000005668849899561949596_" fill="#C8C8C8" d="M609.637,518.946
			L609.637,518.946V414.694l0,0h59.2l0,0v104.252l0,0H609.637z"/>
		<path id="_x32_021-overall-mobile_00000096757433805262825960000016238864788744037044_" fill="#C8C8C8" d="M1075.027,596
			L1075.027,596V467.074l0,0h25.44l0,0V596l0,0H1075.027z"/>
	</g>
	<g id="_x32_020-overall_00000134962374216631986650000004162607621320859544_">
		<path id="_x32_020-overall-desktop_00000151521788415366913070000000851620126511707286_" fill="#C8C8C8" d="M465.953,518.946
			L465.953,518.946V393.844l0,0h59.2l0,0v125.102l0,0H465.953z"/>
		<path id="_x32_020-overall-mobile_00000145034411659620964030000003087200263303046582_" fill="#C8C8C8" d="M1020.211,596
			L1020.211,596V441.289l0,0h25.44l0,0V596l0,0H1020.211z"/>
	</g>
	<g id="_x32_019-overall_00000173878713601731610770000014477121443193642171_">
		<path id="_x32_019-overall-desktop_00000089539527612579687750000018311180327314878120_" fill="#C8C8C8" d="M322.662,518.946
			L322.662,518.946V375.212l0,0h59.2l0,0v143.734l0,0H322.662z"/>
		<path id="_x32_019-overall-mobile_00000093137966451171143390000000221117579619792823_" fill="#C8C8C8" d="M965.544,596
			L965.544,596V418.247l0,0h25.44l0,0V596l0,0H965.544z"/>
	</g>
	<g id="_x32_018-overall_00000099661222497127379290000013752922543559751042_">
		<path id="_x32_018-overall-desktop_00000057124275641040080430000001326500007159647408_" fill="#C8C8C8" d="M179.371,518.946
			L179.371,518.946V363.677l0,0h59.2l0,0v155.269l0,0H179.371z"/>
		<path id="_x32_018-overall-mobile_00000038405969163348235470000009382005156647168666_" fill="#C8C8C8" d="M910.877,596
			L910.877,596V403.983l0,0h25.44l0,0V596l0,0H910.877z"/>
	</g>
	<g id="_x32_017-overall_00000182523494131299919940000006451274592879111056_">
		<path id="_x32_017-overall-desktop_00000033362969785634535210000000964413928538278847_" fill="#C8C8C8" d="M36.08,518.946
			L36.08,518.946V328.187l0,0h59.2l0,0v190.759l0,0H36.08z"/>
		<path id="_x32_017-overall-mobile_00000029026287662694071200000015517363747621409435_" fill="#C8C8C8" d="M856.21,596
			L856.21,596V360.094l0,0h25.44l0,0V596l0,0H856.21z"/>
	</g>
	<g id="_x32_021-saln_00000116945784815426324040000011606465452074830483_">
		<path id="_x32_021-saln-desktop_00000024689368911042466250000004886346296580946610_" fill="#7F3A39" d="M668.837,518.946
			L668.837,518.946v-97.598l0,0h59.2l0,0v97.598l0,0H668.837z"/>
		<path id="_x32_021-saln-mobile_00000073699562235524125990000001803465240275553688_" fill="#7F3A39" d="M1100.468,596
			L1100.468,596V475.304l0,0h25.44l0,0V596l0,0H1100.468z"/>
	</g>
	<g id="_x32_020-saln_00000118390947125371660210000001142951572263942292_">
		<path id="_x32_020-saln-desktop_00000132081280324346726890000001878493054521236622_" fill="#7F3A39" d="M525.153,518.946
			L525.153,518.946V297.134l0,0h59.2l0,0v221.812l0,0H525.153z"/>
		<path id="_x32_020-saln-mobile_00000108306912905002562650000015394798309354148524_" fill="#7F3A39" d="M1045.651,596
			L1045.651,596V321.69l0,0h25.44l0,0V596l0,0H1045.651z"/>
	</g>
	<g id="_x32_019-saln_00000117637558633653935270000000880608308419677617_">
		<path id="_x32_019-saln-desktop_00000066511149192117463170000009262200756991467409_" fill="#7F3A39" d="M381.862,518.946
			L381.862,518.946v-345.14l0,0h59.2l0,0v345.14l0,0H381.862z"/>
		<path id="_x32_019-saln-mobile_00000129196018616700956820000000335216015791639189_" fill="#7F3A39" d="M990.984,596L990.984,596
			V169.174l0,0h25.44l0,0V596l0,0H990.984z"/>
	</g>
	<g id="_x32_018-saln_00000031901780315514467180000000567499250072503229_">
		<path id="_x32_018-saln-desktop_00000141428638906235938830000011014781251266699953_" fill="#7F3A39" d="M238.571,518.946
			L238.571,518.946V96.615l0,0h59.2l0,0v422.331l0,0H238.571z"/>
		<path id="_x32_018-saln-mobile_00000051347459617820197380000012178061064606255251_" fill="#7F3A39" d="M936.317,596L936.317,596
			V73.714l0,0h25.44l0,0V596l0,0H936.317z"/>
	</g>
	<g id="_x32_017-saln_00000090979551187036090950000015112612615233587868_">
		<path id="_x32_017-saln-desktop_00000139275770356036040170000015374669550285037965_" fill="#7F3A39" d="M95.28,518.946
			L95.28,518.946V144.527l0,0h59.2l0,0v374.419l0,0H95.28z"/>
		<path id="_x32_017-saln-mobile_00000140723018369392034970000006203526570051342248_" fill="#7F3A39" d="M881.65,596L881.65,596
			V132.965l0,0h25.44l0,0V596l0,0H881.65z"/>
	</g>
</g>
<style>
#g-saln-web-interactions-img rect, #g-saln-web-interactions-img circle, #g-saln-web-interactions-img path, #g-saln-web-interactions-img line, #g-saln-web-interactions-img polyline, #g-saln-web-interactions-img polygon { vector-effect: non-scaling-stroke; }
</style>
</svg>

