<?xml version="1.0" encoding="utf-8"?>
<!-- Generator: Adobe Illustrator 26.2.1, SVG Export Plug-In . SVG Version: 6.00 Build 0)  -->
<svg version="1.2" baseProfile="tiny" id="g-saln-web-interactions-img" xmlns="http://www.w3.org/2000/svg" xmlns:xlink="http://www.w3.org/1999/xlink"
	 x="0px" y="0px" viewBox="0 0 800 565.284" overflow="visible" xml:space="preserve">
<g>
	<g id="arrows-2021_00000120545303385005339360000007294793987502611593_">
		<g id="arrow-2-desktop_00000090994364108395839450000000474766236722644108_">
			<path fill="none" stroke="#464646" d="M696.21,400.872c-5.161-4.198-32.009-27.124-24.722-44.131"/>
			<g>
				<polygon fill="#464646" points="696.352,395.581 695.358,395.698 695.935,400.594 691.009,400.813 691.054,401.813 
					697.054,401.545 				"/>
			</g>
		</g>
		<g id="arrow-2-mobile_00000039832454805030400770000002995800787366822071_">
			<path fill="none" stroke="#464646" d="M1114.308,454.678c-2.877-4.9-15.064-27.999,4.813-37.256"/>
			<g>
				<polygon fill="#464646" points="1116.305,449.769 1115.333,449.529 1114.157,454.318 1109.467,452.795 1109.159,453.747 
					1114.871,455.6 				"/>
			</g>
		</g>
	</g>
	<g id="arrows-2018_00000051344246107177155490000007413907416328033664_">
		<g id="arrow-1-desktop_00000159439957282564645950000010898159578494371753_">
			<path fill="none" stroke="#464646" d="M271.81,94.764c-2.297-32.82,51.847-15.332,51.847-15.332"/>
			<g>
				<polygon fill="#464646" points="275.832,91.302 275.076,90.647 271.852,94.378 268.366,90.889 267.659,91.597 271.905,95.845 
									"/>
			</g>
		</g>
		<g id="arrow-1-mobile_00000146459926990943475190000000397188904286888611_">
			<path fill="none" stroke="#464646" d="M950.334,72.847c19.332-28.995,27.768,14.928,27.768,14.928"/>
			<g>
				<polygon fill="#464646" points="955.606,72.468 955.392,71.49 950.577,72.549 949.872,67.668 948.882,67.812 949.741,73.756 
									"/>
			</g>
		</g>
	</g>
	<g id="_x32_021-overall_00000113310887430324804810000005960927989396348327_">
		<path id="_x32_021-overall-desktop_00000101085269528787536230000001932978435254596758_" fill="#C8C8C8" d="M609.637,518.946
			L609.637,518.946V414.694l0,0h59.2l0,0v104.252l0,0H609.637z"/>
		<path id="_x32_021-overall-mobile_00000081647954581941699610000002966051852470718365_" fill="#C8C8C8" d="M1075.027,596
			L1075.027,596V467.074l0,0h25.44l0,0V596l0,0H1075.027z"/>
	</g>
	<g id="_x32_020-overall_00000045603026977843770060000000938600934657629313_">
		<path id="_x32_020-overall-desktop_00000152942783426240589290000002949069943819375255_" fill="#C8C8C8" d="M465.953,518.946
			L465.953,518.946V393.844l0,0h59.2l0,0v125.102l0,0H465.953z"/>
		<path id="_x32_020-overall-mobile_00000155116341731687556200000013343039300127981482_" fill="#C8C8C8" d="M1020.211,596
			L1020.211,596V441.289l0,0h25.44l0,0V596l0,0H1020.211z"/>
	</g>
	<g id="_x32_019-overall_00000087403239990827980900000010980973553357715891_">
		<path id="_x32_019-overall-desktop_00000016046489008614212390000005323050104938322049_" fill="#C8C8C8" d="M322.662,518.946
			L322.662,518.946V375.212l0,0h59.2l0,0v143.734l0,0H322.662z"/>
		<path id="_x32_019-overall-mobile_00000094591152301564360750000011693728603856952230_" fill="#C8C8C8" d="M965.544,596
			L965.544,596V418.247l0,0h25.44l0,0V596l0,0H965.544z"/>
	</g>
	<g id="_x32_018-overall_00000150783110305846346540000011795936085458360474_">
		<path id="_x32_018-overall-desktop_00000066479342537190327700000010089046100907737783_" fill="#C8C8C8" d="M179.371,518.946
			L179.371,518.946V363.677l0,0h59.2l0,0v155.269l0,0H179.371z"/>
		<path id="_x32_018-overall-mobile_00000132768439783762781670000009944904087444718471_" fill="#C8C8C8" d="M910.877,596
			L910.877,596V403.983l0,0h25.44l0,0V596l0,0H910.877z"/>
	</g>
	<g id="_x32_017-overall_00000085226483154360608230000017849661218671109794_">
		<path id="_x32_017-overall-desktop_00000044171453708320843100000005251585946441729945_" fill="#C8C8C8" d="M36.08,518.946
			L36.08,518.946V328.187l0,0h59.2l0,0v190.759l0,0H36.08z"/>
		<path id="_x32_017-overall-mobile_00000111188755123027552480000015089092196925255315_" fill="#C8C8C8" d="M856.21,596
			L856.21,596V360.094l0,0h25.44l0,0V596l0,0H856.21z"/>
	</g>
	<g id="_x32_021-saln_00000101104133680570697200000007338071019647215232_">
		<path id="_x32_021-saln-desktop_00000051373141562888850820000016629631426806548152_" fill="#7F3A39" d="M668.837,518.946
			L668.837,518.946V401.011l0,0h59.2l0,0v117.936l0,0H668.837z"/>
		<path id="_x32_021-saln-mobile_00000005249034968280345480000017437877921531675285_" fill="#7F3A39" d="M1100.468,596
			L1100.468,596V454.567l0,0h25.44l0,0V596l0,0H1100.468z"/>
	</g>
	<g id="_x32_020-saln_00000176754526536644920030000001124880272119499938_">
		<path id="_x32_020-saln-desktop_00000122715180290453772490000010154696451695413406_" fill="#7F3A39" d="M525.153,518.946
			L525.153,518.946V297.134l0,0h59.2l0,0v221.812l0,0H525.153z"/>
		<path id="_x32_020-saln-mobile_00000063596946980509440100000000509733837703544243_" fill="#7F3A39" d="M1045.651,596
			L1045.651,596V321.69l0,0h25.44l0,0V596l0,0H1045.651z"/>
	</g>
	<g id="_x32_019-saln_00000122715492013421350000000003826469532914839211_">
		<path id="_x32_019-saln-desktop_00000044882017838232572290000017552957369722889143_" fill="#7F3A39" d="M381.862,518.946
			L381.862,518.946v-345.14l0,0h59.2l0,0v345.14l0,0H381.862z"/>
		<path id="_x32_019-saln-mobile_00000023256061599556132290000004141651792157838219_" fill="#7F3A39" d="M990.984,596L990.984,596
			V169.174l0,0h25.44l0,0V596l0,0H990.984z"/>
	</g>
	<g id="_x32_018-saln_00000127735640361113919710000015768752377017310618_">
		<path id="_x32_018-saln-desktop_00000046308217079718487610000009708920825702539155_" fill="#7F3A39" d="M238.571,518.946
			L238.571,518.946V96.615l0,0h59.2l0,0v422.331l0,0H238.571z"/>
		<path id="_x32_018-saln-mobile_00000029761909236745148970000003202691612229567370_" fill="#7F3A39" d="M936.317,596L936.317,596
			V73.714l0,0h25.44l0,0V596l0,0H936.317z"/>
	</g>
	<g id="_x32_017-saln_00000092433716412243956870000010742025978839088552_">
		<path id="_x32_017-saln-desktop_00000049181764291089492190000010278309004256755356_" fill="#7F3A39" d="M95.28,518.946
			L95.28,518.946V144.527l0,0h59.2l0,0v374.419l0,0H95.28z"/>
		<path id="_x32_017-saln-mobile_00000092436080721096577330000011459823369557367457_" fill="#7F3A39" d="M881.65,596L881.65,596
			V132.965l0,0h25.44l0,0V596l0,0H881.65z"/>
	</g>
</g>
<style>
#g-saln-web-interactions-img rect, #g-saln-web-interactions-img circle, #g-saln-web-interactions-img path, #g-saln-web-interactions-img line, #g-saln-web-interactions-img polyline, #g-saln-web-interactions-img polygon { vector-effect: non-scaling-stroke; }
</style>
</svg>

