<?xml version="1.0" encoding="utf-8"?>
<!-- Generator: Adobe Illustrator 26.2.1, SVG Export Plug-In . SVG Version: 6.00 Build 0)  -->
<svg version="1.2" baseProfile="tiny" id="g-saln-mobile-interactions-img" xmlns="http://www.w3.org/2000/svg" xmlns:xlink="http://www.w3.org/1999/xlink"
	 x="0px" y="0px" viewBox="0 0 384.456 648.286" overflow="visible" xml:space="preserve">
<g>
	<g id="arrows-2021_00000152245559066329490300000009122148156907794098_">
		<g id="arrow-2-desktop_00000170974047422528700090000018025126496560575619_">
			<path fill="none" stroke="#464646" d="M-123.79,405.528c-5.161-4.198-32.009-27.124-24.722-44.131"/>
			<g>
				<polygon fill="#464646" points="-123.648,400.238 -124.642,400.354 -124.065,405.251 -128.991,405.469 -128.946,406.469 
					-122.946,406.202 				"/>
			</g>
		</g>
		<g id="arrow-2-mobile_00000058573408437219283270000018020521376844428675_">
			<path fill="none" stroke="#464646" d="M294.308,459.334c-2.877-4.9-15.064-27.999,4.813-37.256"/>
			<g>
				<polygon fill="#464646" points="296.305,454.425 295.333,454.185 294.157,458.974 289.467,457.451 289.159,458.403 
					294.871,460.257 				"/>
			</g>
		</g>
	</g>
	<g id="arrows-2018_00000029043361458267620890000017319568983698674834_">
		<g id="arrow-1-desktop_00000043436013572261381800000009300382868466054796_">
			<path fill="none" stroke="#464646" d="M-548.19,99.421c-2.297-32.82,51.847-15.332,51.847-15.332"/>
			<g>
				<polygon fill="#464646" points="-544.168,95.959 -544.924,95.303 -548.148,99.034 -551.634,95.546 -552.341,96.254 
					-548.095,100.501 				"/>
			</g>
		</g>
		<g id="arrow-1-mobile_00000173120608210048373750000009868821790116550530_">
			<path fill="none" stroke="#464646" d="M130.334,77.504c19.332-28.995,27.768,14.928,27.768,14.928"/>
			<g>
				<polygon fill="#464646" points="135.606,77.124 135.392,76.146 130.577,77.205 129.872,72.324 128.882,72.468 129.741,78.412 
									"/>
			</g>
		</g>
	</g>
	<g id="_x32_021-overall_00000017508198970934789030000015884904034368258472_">
		<path id="_x32_021-overall-desktop_00000039105459897264682200000011107917868984820650_" fill="#C8C8C8" d="M-210.363,523.602
			L-210.363,523.602V419.351l0,0h59.2l0,0v104.252l0,0H-210.363z"/>
		<path id="_x32_021-overall-mobile_00000140006944859838214750000009879889726811249084_" fill="#C8C8C8" d="M255.027,600.656
			L255.027,600.656V471.731l0,0h25.44l0,0v128.926l0,0H255.027z"/>
	</g>
	<g id="_x32_020-overall_00000017510331872701042560000003657395233471361949_">
		<path id="_x32_020-overall-desktop_00000137108902695052895110000005211028477795967400_" fill="#C8C8C8" d="M-354.047,523.602
			L-354.047,523.602V398.5l0,0h59.2l0,0v125.102l0,0H-354.047z"/>
		<path id="_x32_020-overall-mobile_00000067219431469129382780000017451729045511875988_" fill="#C8C8C8" d="M200.211,600.656
			L200.211,600.656V445.945l0,0h25.44l0,0v154.711l0,0H200.211z"/>
	</g>
	<g id="_x32_019-overall_00000135685513711280158750000011614951268196086425_">
		<path id="_x32_019-overall-desktop_00000169551943300973279070000012525405262077426840_" fill="#C8C8C8" d="M-497.338,523.602
			L-497.338,523.602V379.868l0,0h59.2l0,0v143.734l0,0H-497.338z"/>
		<path id="_x32_019-overall-mobile_00000064344492222841432210000016871144876865459371_" fill="#C8C8C8" d="M145.544,600.656
			L145.544,600.656V422.903l0,0h25.44l0,0v177.753l0,0H145.544z"/>
	</g>
	<g id="_x32_018-overall_00000183241068108317734100000018157180722617978016_">
		<path id="_x32_018-overall-desktop_00000093872841624541399340000018207468040797728695_" fill="#C8C8C8" d="M-640.629,523.602
			L-640.629,523.602V368.334l0,0h59.2l0,0v155.269l0,0H-640.629z"/>
		<path id="_x32_018-overall-mobile_00000026873235036596288550000010622215161603636367_" fill="#C8C8C8" d="M90.877,600.656
			L90.877,600.656V408.639l0,0h25.44l0,0v192.017l0,0H90.877z"/>
	</g>
	<g id="_x32_017-overall_00000072259543136031171780000017093438611216955819_">
		<path id="_x32_017-overall-desktop_00000060712740333838725790000017861856951468828568_" fill="#C8C8C8" d="M-783.92,523.602
			L-783.92,523.602V332.844l0,0h59.2l0,0v190.759l0,0H-783.92z"/>
		<path id="_x32_017-overall-mobile_00000008111128315954142050000012260164448126516620_" fill="#C8C8C8" d="M36.21,600.656
			L36.21,600.656V364.75l0,0h25.44l0,0v235.906l0,0H36.21z"/>
	</g>
	<g id="_x32_021-saln_00000088122743865478707640000004785592761444731047_">
		<path id="_x32_021-saln-desktop_00000083061363035685731790000011380326182058282166_" fill="#7F3A39" d="M-151.163,523.602
			L-151.163,523.602V405.667l0,0h59.2l0,0v117.936l0,0H-151.163z"/>
		<path id="_x32_021-saln-mobile_00000156587685034904764840000008586034495251565751_" fill="#7F3A39" d="M280.467,600.656
			L280.467,600.656V459.223l0,0h25.44l0,0v141.433l0,0H280.467z"/>
	</g>
	<g id="_x32_020-saln_00000080893391270064499060000013363347500006443428_">
		<path id="_x32_020-saln-desktop_00000116937599233338517580000012976628682027101602_" fill="#7F3A39" d="M-294.847,523.602
			L-294.847,523.602V301.79l0,0h59.2l0,0v221.812l0,0H-294.847z"/>
		<path id="_x32_020-saln-mobile_00000008134919102263452030000016986989415709372313_" fill="#7F3A39" d="M225.651,600.656
			L225.651,600.656v-274.31l0,0h25.44l0,0v274.31l0,0H225.651z"/>
	</g>
	<g id="_x32_019-saln_00000132068257866021877570000011769113913871495609_">
		<path id="_x32_019-saln-desktop_00000134227649575696053210000011258736281130004144_" fill="#7F3A39" d="M-438.138,523.602
			L-438.138,523.602v-345.14l0,0h59.2l0,0v345.14l0,0H-438.138z"/>
		<path id="_x32_019-saln-mobile_00000129195597568807421400000004329143947700674239_" fill="#7F3A39" d="M170.984,600.656
			L170.984,600.656V173.83l0,0h25.44l0,0v426.826l0,0H170.984z"/>
	</g>
	<g id="_x32_018-saln_00000106860191897821885780000000112606748361230507_">
		<path id="_x32_018-saln-desktop_00000130634412822492871190000013620001304142993033_" fill="#7F3A39" d="M-581.429,523.602
			L-581.429,523.602V101.271l0,0h59.2l0,0v422.331l0,0H-581.429z"/>
		<path id="_x32_018-saln-mobile_00000003795521682785696260000004492301674170157235_" fill="#7F3A39" d="M116.317,600.656
			L116.317,600.656V78.37l0,0h25.44l0,0v522.286l0,0H116.317z"/>
	</g>
	<g id="_x32_017-saln_00000043439426579518831950000011773041040694775722_">
		<path id="_x32_017-saln-desktop_00000137824629524649221170000015925738207748842914_" fill="#7F3A39" d="M-724.72,523.602
			L-724.72,523.602V149.183l0,0h59.2l0,0v374.419l0,0H-724.72z"/>
		<path id="_x32_017-saln-mobile_00000029739595865619832800000007778048821779656862_" fill="#7F3A39" d="M61.65,600.656
			L61.65,600.656V137.621l0,0h25.44l0,0v463.035l0,0H61.65z"/>
	</g>
</g>
<style>
#g-saln-mobile-interactions-img rect, #g-saln-mobile-interactions-img circle, #g-saln-mobile-interactions-img path, #g-saln-mobile-interactions-img line, #g-saln-mobile-interactions-img polyline, #g-saln-mobile-interactions-img polygon { vector-effect: non-scaling-stroke; }
</style>
</svg>

