<?xml version="1.0" encoding="utf-8"?>
<!-- Generator: Adobe Illustrator 26.2.1, SVG Export Plug-In . SVG Version: 6.00 Build 0)  -->
<svg version="1.2" baseProfile="tiny" id="g-saln-mobile-interactions-img" xmlns="http://www.w3.org/2000/svg" xmlns:xlink="http://www.w3.org/1999/xlink"
	 x="0px" y="0px" viewBox="0 0 378 648.286" overflow="visible" xml:space="preserve">
<g>
	<g id="arrows-2021_00000103224013934992806280000003098261791277466251_">
		<g id="arrow-2-desktop_00000127726916585414730910000009166338293141429646_">
			<path fill="none" stroke="#464646" d="M-125.837,425.331c-5.161-4.198-32.009-27.124-24.722-44.131"/>
			<g>
				<polygon fill="#464646" points="-125.695,420.04 -126.689,420.156 -126.111,425.053 -131.038,425.272 -130.992,426.272 
					-124.992,426.004 				"/>
			</g>
		</g>
		<g id="arrow-2-mobile_00000023989829292047902670000004115500077664011422_">
			<path fill="none" stroke="#464646" d="M292.262,479.137c-2.877-4.9-15.064-27.999,4.813-37.256"/>
			<g>
				<polygon fill="#464646" points="294.258,474.228 293.286,473.988 292.111,478.776 287.42,477.254 287.112,478.206 
					292.825,480.059 				"/>
			</g>
		</g>
	</g>
	<g id="arrows-2018_00000134215549387364915640000012237642093397256880_">
		<g id="arrow-1-desktop_00000158018910277598157510000003426095304701598131_">
			<path fill="none" stroke="#464646" d="M-548.19,99.421c-2.297-32.82,51.847-15.332,51.847-15.332"/>
			<g>
				<polygon fill="#464646" points="-544.168,95.959 -544.924,95.303 -548.148,99.034 -551.634,95.546 -552.341,96.254 
					-548.095,100.501 				"/>
			</g>
		</g>
		<g id="arrow-1-mobile_00000008837607374106940900000004708835486065789856_">
			<path fill="none" stroke="#464646" d="M130.334,77.504c19.332-28.995,27.768,14.928,27.768,14.928"/>
			<g>
				<polygon fill="#464646" points="135.606,77.124 135.392,76.146 130.577,77.205 129.872,72.324 128.882,72.468 129.741,78.412 
									"/>
			</g>
		</g>
	</g>
	<g id="_x32_021-overall_00000111879037990772200610000005442972871692202419_">
		<path id="_x32_021-overall-desktop_00000075123750261779152880000012560342670210658455_" fill="#C8C8C8" d="M-210.363,523.602
			L-210.363,523.602V419.351l0,0h59.2l0,0v104.252l0,0H-210.363z"/>
		<path id="_x32_021-overall-mobile_00000084491452650612888200000007248387984092753823_" fill="#C8C8C8" d="M255.027,600.656
			L255.027,600.656V471.731l0,0h25.44l0,0v128.926l0,0H255.027z"/>
	</g>
	<g id="_x32_020-overall_00000144336430916482647990000000675946703215181739_">
		<path id="_x32_020-overall-desktop_00000003102501720577327800000006663348556398807469_" fill="#C8C8C8" d="M-354.047,523.602
			L-354.047,523.602V398.5l0,0h59.2l0,0v125.102l0,0H-354.047z"/>
		<path id="_x32_020-overall-mobile_00000137124770832915197100000013094774860879429550_" fill="#C8C8C8" d="M200.211,600.656
			L200.211,600.656V445.945l0,0h25.44l0,0v154.711l0,0H200.211z"/>
	</g>
	<g id="_x32_019-overall_00000111872590148388419770000004478611156294140581_">
		<path id="_x32_019-overall-desktop_00000112634430068912353180000002559418647755067286_" fill="#C8C8C8" d="M-497.338,523.602
			L-497.338,523.602V379.868l0,0h59.2l0,0v143.734l0,0H-497.338z"/>
		<path id="_x32_019-overall-mobile_00000062181751500388492240000012362195522585350802_" fill="#C8C8C8" d="M145.544,600.656
			L145.544,600.656V422.903l0,0h25.44l0,0v177.753l0,0H145.544z"/>
	</g>
	<g id="_x32_018-overall_00000100377725188802776600000007634657489134054556_">
		<path id="_x32_018-overall-desktop_00000154417422290126454520000002255623622899069361_" fill="#C8C8C8" d="M-640.629,523.602
			L-640.629,523.602V368.334l0,0h59.2l0,0v155.269l0,0H-640.629z"/>
		<path id="_x32_018-overall-mobile_00000119087594558178351660000016826092781750442118_" fill="#C8C8C8" d="M90.877,600.656
			L90.877,600.656V408.639l0,0h25.44l0,0v192.017l0,0H90.877z"/>
	</g>
	<g id="_x32_017-overall_00000172400583666262758830000002954359750874783142_">
		<path id="_x32_017-overall-desktop_00000018223785182140985430000006577978730282899898_" fill="#C8C8C8" d="M-783.92,523.602
			L-783.92,523.602V332.844l0,0h59.2l0,0v190.759l0,0H-783.92z"/>
		<path id="_x32_017-overall-mobile_00000108269789903766839740000004421666100666499741_" fill="#C8C8C8" d="M36.21,600.656
			L36.21,600.656V364.75l0,0h25.44l0,0v235.906l0,0H36.21z"/>
	</g>
	<g id="_x32_021-saln_00000156554558990451375440000017490032186551741344_">
		<path id="_x32_021-saln-desktop_00000017517435136511396570000017556790227879420086_" fill="#7F3A39" d="M-151.163,523.602
			L-151.163,523.602v-97.597l0,0h59.2l0,0v97.597l0,0H-151.163z"/>
		<path id="_x32_021-saln-mobile_00000053522750949924386120000012936444728965723029_" fill="#7F3A39" d="M280.467,600.656
			L280.467,600.656V479.96l0,0h25.44l0,0v120.696l0,0H280.467z"/>
	</g>
	<g id="_x32_020-saln_00000067944188399007108500000003272497875620407486_">
		<path id="_x32_020-saln-desktop_00000109714187952906469750000007922126414411736511_" fill="#7F3A39" d="M-294.847,523.602
			L-294.847,523.602V301.79l0,0h59.2l0,0v221.812l0,0H-294.847z"/>
		<path id="_x32_020-saln-mobile_00000151537624528526252540000014299370775103412379_" fill="#7F3A39" d="M225.651,600.656
			L225.651,600.656v-274.31l0,0h25.44l0,0v274.31l0,0H225.651z"/>
	</g>
	<g id="_x32_019-saln_00000106826029032893538540000001339313898661313922_">
		<path id="_x32_019-saln-desktop_00000089570726299006870930000004731931556992950157_" fill="#7F3A39" d="M-438.138,523.602
			L-438.138,523.602v-345.14l0,0h59.2l0,0v345.14l0,0H-438.138z"/>
		<path id="_x32_019-saln-mobile_00000077325816611174281620000017904218836448098471_" fill="#7F3A39" d="M170.984,600.656
			L170.984,600.656V173.83l0,0h25.44l0,0v426.826l0,0H170.984z"/>
	</g>
	<g id="_x32_018-saln_00000069395636692657038050000003824648169943577472_">
		<path id="_x32_018-saln-desktop_00000072257859680915937380000007200240797009656245_" fill="#7F3A39" d="M-581.429,523.602
			L-581.429,523.602V101.271l0,0h59.2l0,0v422.331l0,0H-581.429z"/>
		<path id="_x32_018-saln-mobile_00000152240232298152056210000007419584048494462866_" fill="#7F3A39" d="M116.317,600.656
			L116.317,600.656V78.37l0,0h25.44l0,0v522.286l0,0H116.317z"/>
	</g>
	<g id="_x32_017-saln_00000014629523373326776160000012643615603658202765_">
		<path id="_x32_017-saln-desktop_00000029020674125235662070000001781734314460489644_" fill="#7F3A39" d="M-724.72,523.602
			L-724.72,523.602V149.183l0,0h59.2l0,0v374.419l0,0H-724.72z"/>
		<path id="_x32_017-saln-mobile_00000083797823632621160210000006107414829849764747_" fill="#7F3A39" d="M61.65,600.656
			L61.65,600.656V137.621l0,0h25.44l0,0v463.035l0,0H61.65z"/>
	</g>
</g>
<style>
#g-saln-mobile-interactions-img rect, #g-saln-mobile-interactions-img circle, #g-saln-mobile-interactions-img path, #g-saln-mobile-interactions-img line, #g-saln-mobile-interactions-img polyline, #g-saln-mobile-interactions-img polygon { vector-effect: non-scaling-stroke; }
</style>
</svg>

