<?xml version="1.0" encoding="utf-8"?>
<!-- Generator: Adobe Illustrator 26.2.1, SVG Export Plug-In . SVG Version: 6.00 Build 0)  -->
<svg version="1.2" baseProfile="tiny" id="g-saln-mobile-interactions-img" xmlns="http://www.w3.org/2000/svg" xmlns:xlink="http://www.w3.org/1999/xlink"
	 x="0px" y="0px" viewBox="0 0 378 648.286" overflow="visible" xml:space="preserve">
<g>
	<g id="_x32_021-annotations_00000182512133285646092880000009411822811461916803_">
		<g id="arrow-2-desktop_00000136382043825189689620000002395670230162880698_">
			<path fill="none" stroke="#464646" d="M-125.837,425.331c-5.161-4.198-32.009-27.124-24.722-44.131"/>
			<g>
				<polygon fill="#464646" points="-125.695,420.04 -126.689,420.156 -126.111,425.053 -131.038,425.272 -130.992,426.272 
					-124.992,426.004 				"/>
			</g>
		</g>
		<text transform="matrix(1 0 0 1 -208.8916 345.0402)" fill="#464646" font-family="'Roboto-Regular'" font-size="14px">Over one in five</text>
		<text transform="matrix(1 0 0 1 -226.9521 361.84)" fill="#464646" font-family="'Roboto-Regular'" font-size="14px">requests for SALN</text>
		<text transform="matrix(1 0 0 1 -218.1406 378.6398)" fill="#464646" font-family="'Roboto-Regular'" font-size="14px">still being denied</text>
		<g id="arrow-2-mobile_00000083794033787516437110000009323640712988589747_">
			<path fill="none" stroke="#464646" d="M292.262,479.137c-2.877-4.9-15.064-27.999,4.813-37.256"/>
			<g>
				<polygon fill="#464646" points="294.258,474.228 293.286,473.988 292.111,478.776 287.42,477.254 287.112,478.206 
					292.825,480.059 				"/>
			</g>
		</g>
	</g>
	<g id="_x32_018-annotations_00000170972225923003330220000011244470071513951108_">
		<g id="arrow-1-desktop_00000056420745064503696340000012071024749227351225_">
			<path fill="none" stroke="#464646" d="M-548.19,99.421c-2.297-32.82,51.847-15.332,51.847-15.332"/>
			<g>
				<polygon fill="#464646" points="-544.168,95.959 -544.924,95.303 -548.148,99.034 -551.634,95.546 -552.341,96.254 
					-548.095,100.501 				"/>
			</g>
		</g>
		<text transform="matrix(1 0 0 1 -477.2122 52.8664)" fill="#464646" font-family="'Roboto-Regular'" font-size="14px">7 out of 9</text>
		<text transform="matrix(1 0 0 1 -510.6467 69.6662)" fill="#464646" font-family="'Roboto-Regular'" font-size="14px">SALN requests</text>
		<text transform="matrix(1 0 0 1 -493.2766 86.466)" fill="#464646" font-family="'Roboto-Regular'" font-size="14px">were denied</text>
		<g id="arrow-1-mobile_00000125580627475824503030000011175547901152776382_">
			<path fill="none" stroke="#464646" d="M130.334,77.504c19.332-28.995,27.768,14.928,27.768,14.928"/>
			<g>
				<polygon fill="#464646" points="135.606,77.124 135.392,76.146 130.577,77.205 129.872,72.324 128.882,72.468 129.741,78.412 
									"/>
			</g>
		</g>
	</g>
	<g id="_x32_021-overall_00000093864153026918048910000010670152666161903029_">
		<path id="_x32_021-overall-desktop_00000180335460834571393150000002572745952580556966_" fill="#C8C8C8" d="M-210.363,523.602
			L-210.363,523.602V419.351l0,0h59.2l0,0v104.252l0,0H-210.363z"/>
		<path id="_x32_021-overall-mobile_00000163795178772821123290000009344514823050963599_" fill="#C8C8C8" d="M255.027,600.656
			L255.027,600.656V471.731l0,0h25.44l0,0v128.926l0,0H255.027z"/>
	</g>
	<g id="_x32_020-overall_00000062179810991337378760000013009993126739424902_">
		<path id="_x32_020-overall-desktop_00000153666295242572574970000012945552412405503635_" fill="#C8C8C8" d="M-354.047,523.602
			L-354.047,523.602V398.5l0,0h59.2l0,0v125.102l0,0H-354.047z"/>
		<path id="_x32_020-overall-mobile_00000021082455249417885840000013793843599459201163_" fill="#C8C8C8" d="M200.211,600.656
			L200.211,600.656V445.945l0,0h25.44l0,0v154.711l0,0H200.211z"/>
	</g>
	<g id="_x32_019-overall_00000132797565712657301780000009761662317522643882_">
		<path id="_x32_019-overall-desktop_00000128481662893064466590000010202850873323315866_" fill="#C8C8C8" d="M-497.338,523.602
			L-497.338,523.602V379.868l0,0h59.2l0,0v143.734l0,0H-497.338z"/>
		<path id="_x32_019-overall-mobile_00000123399777478467006960000004355813797456511416_" fill="#C8C8C8" d="M145.544,600.656
			L145.544,600.656V422.903l0,0h25.44l0,0v177.753l0,0H145.544z"/>
	</g>
	<g id="_x32_018-overall_00000097461722625366049150000018286909552856325304_">
		<path id="_x32_018-overall-desktop_00000134226538491187682700000014453551251201634988_" fill="#C8C8C8" d="M-640.629,523.602
			L-640.629,523.602V368.334l0,0h59.2l0,0v155.269l0,0H-640.629z"/>
		<path id="_x32_018-overall-mobile_00000061435029373157789280000007187841475166358946_" fill="#C8C8C8" d="M90.877,600.656
			L90.877,600.656V408.639l0,0h25.44l0,0v192.017l0,0H90.877z"/>
	</g>
	<g id="_x32_017-overall_00000116201874868981220920000011334978427581516418_">
		<path id="_x32_017-overall-desktop_00000141440153129655610230000007850375905069854142_" fill="#C8C8C8" d="M-783.92,523.602
			L-783.92,523.602V332.844l0,0h59.2l0,0v190.759l0,0H-783.92z"/>
		<path id="_x32_017-overall-mobile_00000019639652155995808740000014848329140159032737_" fill="#C8C8C8" d="M36.21,600.656
			L36.21,600.656V364.75l0,0h25.44l0,0v235.906l0,0H36.21z"/>
	</g>
	<g id="_x32_021-saln_00000004522629749718116780000007681504012391607183_">
		<path id="_x32_021-saln-desktop_00000088132442932664969540000004268775424744272530_" fill="#7F3A39" d="M-151.163,523.602
			L-151.163,523.602v-97.597l0,0h59.2l0,0v97.597l0,0H-151.163z"/>
		<path id="_x32_021-saln-mobile_00000012473662453753488070000009942100423000381595_" fill="#7F3A39" d="M280.467,600.656
			L280.467,600.656V479.96l0,0h25.44l0,0v120.696l0,0H280.467z"/>
	</g>
	<g id="_x32_020-saln_00000170996534722557381670000003687411482498354869_">
		<path id="_x32_020-saln-desktop_00000031888404696125810200000018072016102100476035_" fill="#7F3A39" d="M-294.847,523.602
			L-294.847,523.602V301.79l0,0h59.2l0,0v221.812l0,0H-294.847z"/>
		<path id="_x32_020-saln-mobile_00000176040368105915274550000011942526092338345382_" fill="#7F3A39" d="M225.651,600.656
			L225.651,600.656v-274.31l0,0h25.44l0,0v274.31l0,0H225.651z"/>
	</g>
	<g id="_x32_019-saln_00000012436092725473348870000003307540765162483118_">
		<path id="_x32_019-saln-desktop_00000154402781366301727510000007763410657720903047_" fill="#7F3A39" d="M-438.138,523.602
			L-438.138,523.602v-345.14l0,0h59.2l0,0v345.14l0,0H-438.138z"/>
		<path id="_x32_019-saln-mobile_00000061453194812337963330000002925920337898853026_" fill="#7F3A39" d="M170.984,600.656
			L170.984,600.656V173.83l0,0h25.44l0,0v426.826l0,0H170.984z"/>
	</g>
	<g id="_x32_018-saln_00000067919274950981658000000004285651551759699875_">
		<path id="_x32_018-saln-desktop_00000057127149761774559680000006030151434665315757_" fill="#7F3A39" d="M-581.429,523.602
			L-581.429,523.602V101.271l0,0h59.2l0,0v422.331l0,0H-581.429z"/>
		<path id="_x32_018-saln-mobile_00000050650492181636023660000004216209157034862267_" fill="#7F3A39" d="M116.317,600.656
			L116.317,600.656V78.37l0,0h25.44l0,0v522.286l0,0H116.317z"/>
	</g>
	<g id="_x32_017-saln_00000081638740178478447590000006709416310743495072_">
		<path id="_x32_017-saln-desktop_00000122689047099837781430000002301481010487784124_" fill="#7F3A39" d="M-724.72,523.602
			L-724.72,523.602V149.183l0,0h59.2l0,0v374.419l0,0H-724.72z"/>
		<path id="_x32_017-saln-mobile_00000124123380302424266370000009638811472975556768_" fill="#7F3A39" d="M61.65,600.656
			L61.65,600.656V137.621l0,0h25.44l0,0v463.035l0,0H61.65z"/>
	</g>
</g>
<style>
#g-saln-mobile-interactions-img rect, #g-saln-mobile-interactions-img circle, #g-saln-mobile-interactions-img path, #g-saln-mobile-interactions-img line, #g-saln-mobile-interactions-img polyline, #g-saln-mobile-interactions-img polygon { vector-effect: non-scaling-stroke; }
</style>
</svg>

