<?xml version="1.0" encoding="utf-8"?>
<!-- Generator: Adobe Illustrator 26.2.1, SVG Export Plug-In . SVG Version: 6.00 Build 0)  -->
<svg version="1.2" baseProfile="tiny" id="g-saln-web-interactions-img" xmlns="http://www.w3.org/2000/svg" xmlns:xlink="http://www.w3.org/1999/xlink"
	 x="0px" y="0px" viewBox="0 0 800 565.284" overflow="visible" xml:space="preserve">
<g>
	<g id="_x32_021-annotations_00000011729146158804004250000005337908820852507325_">
		<g id="arrow-2-desktop_00000145751172681237916500000004634360988644653707_">
			<path fill="none" stroke="#464646" d="M694.163,420.674c-5.161-4.198-32.009-27.124-24.722-44.131"/>
			<g>
				<polygon fill="#464646" points="694.305,415.384 693.311,415.5 693.889,420.397 688.962,420.615 689.008,421.615 
					695.008,421.348 				"/>
			</g>
		</g>
		<g id="arrow-2-mobile_00000180329291619456385990000015888371167189776026_">
			<path fill="none" stroke="#464646" d="M1112.262,474.481c-2.877-4.9-15.064-27.999,4.813-37.256"/>
			<g>
				<polygon fill="#464646" points="1114.258,469.571 1113.286,469.332 1112.111,474.12 1107.42,472.597 1107.112,473.549 
					1112.825,475.403 				"/>
			</g>
		</g>
		<text transform="matrix(1 0 0 1 1082.8468 401.0108)" fill="#464646" font-family="'Roboto-Regular'" font-size="14px">Over one in five</text>
		<text transform="matrix(1 0 0 1 1099.7384 417.8106)" fill="#464646" font-family="'Roboto-Regular'" font-size="14px">requests for </text>
		<text transform="matrix(1 0 0 1 1098.3439 434.6104)" fill="#464646" font-family="'Roboto-Regular'" font-size="14px">SALN denied</text>
	</g>
	<g id="_x32_018-annotations_00000118381303301377739870000013599750328582691764_">
		<g id="arrow-1-desktop_00000119111647115486243540000004950713496071968669_">
			<path fill="none" stroke="#464646" d="M271.81,94.764c-2.297-32.82,51.847-15.332,51.847-15.332"/>
			<g>
				<polygon fill="#464646" points="275.832,91.302 275.076,90.647 271.852,94.378 268.366,90.889 267.659,91.597 271.905,95.845 
									"/>
			</g>
		</g>
		<g id="arrow-1-mobile_00000052822444944402681830000018274054325573912738_">
			<path fill="none" stroke="#464646" d="M950.334,72.847c19.332-28.995,27.768,14.928,27.768,14.928"/>
			<g>
				<polygon fill="#464646" points="955.606,72.468 955.392,71.49 950.577,72.549 949.872,67.668 948.882,67.812 949.741,73.756 
									"/>
			</g>
		</g>
		<text transform="matrix(1 0 0 1 1004.8677 84.1507)" fill="#464646" font-family="'Roboto-Regular'" font-size="14px">7 out of 9</text>
		<text transform="matrix(1 0 0 1 971.4331 100.9505)" fill="#464646" font-family="'Roboto-Regular'" font-size="14px">SALN requests</text>
		<text transform="matrix(1 0 0 1 988.8032 117.7503)" fill="#464646" font-family="'Roboto-Regular'" font-size="14px">were denied</text>
	</g>
	<g id="_x32_021-overall_00000176732182607996391170000006701752888515525270_">
		<path id="_x32_021-overall-desktop_00000020401194971701376290000017694436285999354524_" fill="#C8C8C8" d="M609.637,518.946
			L609.637,518.946V414.694l0,0h59.2l0,0v104.252l0,0H609.637z"/>
		<path id="_x32_021-overall-mobile_00000065752612655371302820000005480309821191956925_" fill="#C8C8C8" d="M1075.027,596
			L1075.027,596V467.074l0,0h25.44l0,0V596l0,0H1075.027z"/>
	</g>
	<g id="_x32_020-overall_00000177485780048347537930000001150679928018115751_">
		<path id="_x32_020-overall-desktop_00000175287613965274978920000014795875916286555021_" fill="#C8C8C8" d="M465.953,518.946
			L465.953,518.946V393.844l0,0h59.2l0,0v125.102l0,0H465.953z"/>
		<path id="_x32_020-overall-mobile_00000088125088945262890370000015252342527144145322_" fill="#C8C8C8" d="M1020.211,596
			L1020.211,596V441.289l0,0h25.44l0,0V596l0,0H1020.211z"/>
	</g>
	<g id="_x32_019-overall_00000154400528504139572260000003461674826792672133_">
		<path id="_x32_019-overall-desktop_00000107578213061884406350000017964761926250221751_" fill="#C8C8C8" d="M322.662,518.946
			L322.662,518.946V375.212l0,0h59.2l0,0v143.734l0,0H322.662z"/>
		<path id="_x32_019-overall-mobile_00000078012913614328335060000007779427718678128037_" fill="#C8C8C8" d="M965.544,596
			L965.544,596V418.247l0,0h25.44l0,0V596l0,0H965.544z"/>
	</g>
	<g id="_x32_018-overall_00000080924207634886359940000005264839576901394322_">
		<path id="_x32_018-overall-desktop_00000170971912794659114490000003300102963289358269_" fill="#C8C8C8" d="M179.371,518.946
			L179.371,518.946V363.677l0,0h59.2l0,0v155.269l0,0H179.371z"/>
		<path id="_x32_018-overall-mobile_00000182502297091784282410000003331549694096423828_" fill="#C8C8C8" d="M910.877,596
			L910.877,596V403.983l0,0h25.44l0,0V596l0,0H910.877z"/>
	</g>
	<g id="_x32_017-overall_00000031191273626469883210000000985131038066606249_">
		<path id="_x32_017-overall-desktop_00000106108808183688058930000011976696656580602510_" fill="#C8C8C8" d="M36.08,518.946
			L36.08,518.946V328.187l0,0h59.2l0,0v190.759l0,0H36.08z"/>
		<path id="_x32_017-overall-mobile_00000005259134786343151050000015541057173757337267_" fill="#C8C8C8" d="M856.21,596
			L856.21,596V360.094l0,0h25.44l0,0V596l0,0H856.21z"/>
	</g>
	<g id="_x32_021-saln_00000049204271364342601170000005407693078750236333_">
		<path id="_x32_021-saln-desktop_00000088108918512789709310000000096052600457419184_" fill="#7F3A39" d="M668.837,518.946
			L668.837,518.946v-97.598l0,0h59.2l0,0v97.598l0,0H668.837z"/>
		<path id="_x32_021-saln-mobile_00000154386518180851804680000013309818557666531233_" fill="#7F3A39" d="M1100.468,596
			L1100.468,596V475.304l0,0h25.44l0,0V596l0,0H1100.468z"/>
	</g>
	<g id="_x32_020-saln_00000141434598244990280650000010532596220527573377_">
		<path id="_x32_020-saln-desktop_00000165194121738829318820000009536077784854059179_" fill="#7F3A39" d="M525.153,518.946
			L525.153,518.946V297.134l0,0h59.2l0,0v221.812l0,0H525.153z"/>
		<path id="_x32_020-saln-mobile_00000128454562247164162740000018037565590914433419_" fill="#7F3A39" d="M1045.651,596
			L1045.651,596V321.69l0,0h25.44l0,0V596l0,0H1045.651z"/>
	</g>
	<g id="_x32_019-saln_00000009589586224657204010000006637358952666221710_">
		<path id="_x32_019-saln-desktop_00000007406128266308213710000016941968935602612915_" fill="#7F3A39" d="M381.862,518.946
			L381.862,518.946v-345.14l0,0h59.2l0,0v345.14l0,0H381.862z"/>
		<path id="_x32_019-saln-mobile_00000023985692326406996470000016314359868807304868_" fill="#7F3A39" d="M990.984,596L990.984,596
			V169.174l0,0h25.44l0,0V596l0,0H990.984z"/>
	</g>
	<g id="_x32_018-saln_00000094590744165964324380000010274458353579212472_">
		<path id="_x32_018-saln-desktop_00000162331560143272933880000010939535235716443791_" fill="#7F3A39" d="M238.571,518.946
			L238.571,518.946V96.615l0,0h59.2l0,0v422.331l0,0H238.571z"/>
		<path id="_x32_018-saln-mobile_00000131359270184025355740000006869310788623314062_" fill="#7F3A39" d="M936.317,596L936.317,596
			V73.714l0,0h25.44l0,0V596l0,0H936.317z"/>
	</g>
	<g id="_x32_017-saln_00000152951584658249547990000013439007242208785536_">
		<path id="_x32_017-saln-desktop_00000167356831095864473120000017517435594220103065_" fill="#7F3A39" d="M95.28,518.946
			L95.28,518.946V144.527l0,0h59.2l0,0v374.419l0,0H95.28z"/>
		<path id="_x32_017-saln-mobile_00000150801077451951371960000001546874170927897264_" fill="#7F3A39" d="M881.65,596L881.65,596
			V132.965l0,0h25.44l0,0V596l0,0H881.65z"/>
	</g>
</g>
<style>
#g-saln-web-interactions-img rect, #g-saln-web-interactions-img circle, #g-saln-web-interactions-img path, #g-saln-web-interactions-img line, #g-saln-web-interactions-img polyline, #g-saln-web-interactions-img polygon { vector-effect: non-scaling-stroke; }
</style>
</svg>

